<svg width="113" height="99" viewBox="0 0 113 99" fill="none" xmlns="http://www.w3.org/2000/svg">
<path d="M69.5798 3.46593C70.0633 3.94951 70.0633 3.94951 70.271 5.26614C70.0312 7.09595 69.4738 7.6708 68.0748 8.82606C67.7937 9.04202 67.5126 9.25798 67.223 9.48048C66.9354 9.70922 66.6477 9.93795 66.3514 10.1736C65.7691 10.633 65.1835 11.0882 64.5945 11.539C63.8891 12.0848 63.2038 12.6562 62.5227 13.232C59.7305 15.4607 57.3972 15.9162 53.8811 16.279C48.0072 17.1183 43.1731 20.6095 39.4287 25.0779C35.0422 31.2817 33.9675 37.6317 34.7718 45.054C36.1261 51.4674 40.2415 56.6677 45.4076 60.5286C51.5027 64.2073 58.5003 64.9613 65.4535 63.5812C69.0489 62.3429 72.2348 60.2089 75.3811 58.1107C76.8174 57.9856 76.8174 57.9856 78.5556 57.9823C79.1791 57.981 79.8026 57.9798 80.445 57.9785C80.7692 57.9805 81.0934 57.9825 81.4274 57.9846C82.4195 57.9898 83.4112 57.9847 84.4032 57.9785C85.0261 57.9797 85.649 57.981 86.2908 57.9823C86.8638 57.9834 87.4369 57.9844 88.0273 57.9856C89.401 58.1107 89.401 58.1107 90.3679 59.0779C90.7092 60.8498 90.3935 61.4579 89.3746 62.9711C88.9278 63.5034 88.4728 64.0289 88.0111 64.5484C87.77 64.8249 87.5288 65.1014 87.2803 65.3863C81.2208 72.1754 72.1762 77.3297 62.9738 78.0365C51.8382 78.4208 42.2777 76.3326 33.8049 68.7495C33.4123 68.4516 33.0197 68.1536 32.6152 67.8466C27.2872 63.3698 23.4243 56.0741 21.7188 49.4062C21.6203 49.0353 21.5219 48.6644 21.4204 48.2823C19.1321 38.0448 21.2767 28.3116 26.5532 19.4241C27.5701 17.8466 28.672 16.4563 29.9374 15.0719C30.3244 14.6405 30.7114 14.2092 31.1101 13.7647C40.1828 4.15095 56.6725 -1.93933 69.5798 3.46593Z" fill="white"/>
<path d="M21.7184 61.0122C22.921 62.5131 24.1116 64.021 25.2838 65.5458C25.5798 65.9236 25.8758 66.3013 26.1808 66.6905C26.692 67.343 27.1985 67.9991 27.6953 68.6626C30.2506 71.9047 33.7821 74.2152 37.1886 76.4868C36.5106 78.0151 35.7082 79.0631 34.539 80.2525C34.195 80.6044 33.851 80.9562 33.4965 81.3187C33.1239 81.694 32.7513 82.0694 32.3674 82.4561C31.982 82.8459 31.5967 83.2357 31.1996 83.6373C30.3829 84.4613 29.5648 85.284 28.7454 86.1054C27.5 87.3569 26.2639 88.6171 25.0279 89.8779C24.2318 90.6788 23.4352 91.4791 22.638 92.2788C22.0894 92.8418 22.0894 92.8418 21.5296 93.4162C18.9046 96.0202 16.3142 97.8033 12.6368 98.5049C9.25764 98.4586 6.86911 97.7553 4.34079 95.4599C1.82421 92.7846 0.672098 90.3229 0.205078 86.7025C0.432416 81.9227 3.9924 78.4062 7.22446 75.2741C7.63954 74.8623 8.05461 74.4506 8.48226 74.0263C9.79665 72.725 11.1192 71.4324 12.4423 70.1398C13.3402 69.2538 14.2375 68.3673 15.1343 67.4801C17.3226 65.3176 19.5178 63.1622 21.7184 61.0122Z" fill="white"/>
<path d="M76.8164 17.3144C77.1436 17.3142 77.4708 17.3139 77.8078 17.3137C78.4986 17.3148 79.1895 17.3195 79.8802 17.3275C80.9371 17.3389 81.9933 17.3375 83.0502 17.3342C88.2317 17.355 88.2317 17.355 89.8846 18.4572C90.0655 19.8521 90.0655 19.8521 90.0646 21.6591C90.0663 21.9878 90.0681 22.3166 90.0699 22.6553C90.0738 23.7445 90.0672 24.8334 90.0602 25.9225C90.0599 26.6778 90.0602 27.433 90.0609 28.1883C90.0609 29.7721 90.0558 31.3559 90.0471 32.9397C90.0361 34.9725 90.0359 37.0051 90.0391 39.0379C90.0407 40.5977 90.0375 42.1575 90.0328 43.7174C90.0309 44.467 90.0304 45.2166 90.0311 45.9663C90.0313 47.013 90.0252 48.0595 90.0173 49.1062C90.0151 49.7025 90.0129 50.2987 90.0106 50.9131C89.8846 52.308 89.8846 52.308 88.9177 53.2752C87.7161 53.3775 86.5697 53.4222 85.3674 53.4206C85.0169 53.4227 84.6665 53.4248 84.3054 53.4269C83.5642 53.4297 82.8229 53.4299 82.0817 53.4278C80.9452 53.4263 79.8093 53.4376 78.6728 53.4499C77.9533 53.451 77.2338 53.4513 76.5143 53.4508C76.1734 53.4553 75.8324 53.4598 75.4811 53.4643C74.5229 53.4552 74.5229 53.4552 72.964 53.2752C71.8026 51.5326 71.8723 50.7367 71.8643 48.6641C71.8606 48.1862 71.8606 48.1862 71.8568 47.6986C71.8501 46.6459 71.8506 45.5933 71.8517 44.5405C71.8498 43.8088 71.8477 43.077 71.8454 42.3453C71.8418 40.812 71.842 39.2787 71.8445 37.7453C71.8473 35.7792 71.8391 33.8133 71.8279 31.8473C71.8208 30.3364 71.8203 28.8255 71.8219 27.3146C71.8216 26.5897 71.8191 25.8647 71.8142 25.1398C71.8083 24.1267 71.8115 23.1141 71.8171 22.1011C71.8168 21.5245 71.8165 20.948 71.8162 20.3539C71.9971 18.9408 71.9971 18.9408 72.6387 18.0292C73.9693 17.1422 75.2429 17.3107 76.8164 17.3144Z" fill="white"/>
<path d="M82.1487 0.564599C84.2895 1.47451 85.7073 2.50932 86.9831 4.46348C87.4666 5.884 87.4666 5.884 87.4666 7.81833C87.7246 7.90062 87.9826 7.9829 88.2484 8.06768C90.7372 8.87741 93.1249 9.80195 95.5114 10.8785C96.8996 11.274 97.698 11.1412 99.0692 10.7198C99.5478 10.4007 100.026 10.0815 100.52 9.75266C102.716 9.4659 104.728 9.48609 106.774 10.3571C108.526 11.844 109.279 12.914 109.675 15.193C109.868 17.6389 109.271 19.4223 107.771 21.3586C105.81 22.8184 103.959 23.0678 101.573 22.9794C99.3588 22.6221 98.0439 21.4468 96.7426 19.6963C96.1686 18.4571 96.1686 18.4571 96.1535 17.2879C95.5846 15.7712 95.2676 15.6964 93.8363 15.0456C93.0565 14.7421 92.2725 14.449 91.4852 14.1653C91.0966 14.0108 90.7081 13.8562 90.3077 13.6969C87.5321 12.6526 85.6703 12.4627 82.8738 13.6515C81.1631 14.2932 79.564 14.3865 77.826 13.7743C76.8067 13.513 76.8067 13.513 75.9281 14.1276C75.6078 14.3994 75.2875 14.6711 74.9574 14.9512C74.5848 15.2591 74.2121 15.5671 73.8281 15.8843C73.3832 16.2546 72.9382 16.6249 72.4798 17.0064C71.2763 17.96 70.0647 18.9031 68.854 19.8474C66.9787 21.2578 66.9787 21.2578 65.2281 22.8094C65.1642 23.564 65.1166 24.3199 65.077 25.0762C64.8594 27.3847 64.4017 28.7834 62.8109 30.5467C60.6916 31.96 59.0508 32.268 56.5261 31.9974C54.2948 31.2535 53.0993 30.2721 52.0278 28.142C51.1687 25.6363 51.3384 23.5432 52.4773 21.1773C53.8399 19.6708 54.5702 19.0511 56.5261 18.4571C57.4245 18.6071 58.3207 18.7698 59.2153 18.9407C61.3314 19.1928 62.1203 19.0721 63.9477 17.9131C65.3234 16.7793 66.6107 15.5551 67.8871 14.3115C68.9117 13.3363 70.004 12.464 71.1201 11.5963C71.456 11.3301 71.7919 11.064 72.138 10.7897C72.9632 10.2362 72.9632 10.2362 73.9301 10.2362C73.9049 9.75469 73.9049 9.75469 73.8791 9.26341C73.7454 4.90001 73.7454 4.90001 75.3805 2.98251C77.7096 0.936819 79.0032 0.26011 82.1487 0.564599Z" fill="white"/>
<path d="M101.199 26.5219C101.559 26.523 101.918 26.524 102.289 26.5251C103.385 26.5266 104.48 26.5153 105.576 26.503C106.272 26.5019 106.968 26.5016 107.664 26.5021C108.299 26.5006 108.933 26.4992 109.587 26.4977C111.156 26.6778 111.156 26.6778 111.968 27.2696C112.801 28.39 112.787 29.0565 112.786 30.4454C112.791 31.1498 112.791 31.1498 112.795 31.8684C112.791 32.3747 112.786 32.881 112.782 33.4026C112.782 34.1833 112.782 34.1833 112.783 34.9797C112.781 36.0805 112.777 37.1813 112.769 38.2821C112.757 39.9696 112.759 41.6568 112.762 43.3443C112.759 44.4129 112.756 45.4814 112.752 46.55C112.752 47.3094 112.752 47.3094 112.753 48.0841C112.748 48.5537 112.744 49.0233 112.739 49.5072C112.737 49.9205 112.735 50.3339 112.732 50.7598C112.606 51.824 112.606 51.824 111.639 53.2748C110.416 53.4161 109.313 53.4664 108.089 53.4505C107.739 53.4507 107.388 53.4509 107.027 53.4512C106.286 53.4501 105.545 53.4454 104.803 53.4374C103.667 53.4259 102.531 53.4274 101.395 53.4306C100.675 53.4279 99.9555 53.4245 99.236 53.4202C98.8951 53.4207 98.5541 53.4211 98.2028 53.4216C95.7974 53.3865 95.7974 53.3865 94.7188 52.3076C94.596 51.2615 94.596 51.2615 94.5937 49.9492C94.5907 49.4586 94.5876 48.9681 94.5845 48.4626C94.5864 47.9312 94.5884 47.3998 94.5904 46.8522C94.5895 46.3085 94.5886 45.7647 94.5876 45.2045C94.5869 44.0532 94.5887 42.902 94.5928 41.7507C94.5979 39.9836 94.5928 38.2167 94.5866 36.4495C94.5873 35.3331 94.5885 34.2167 94.5904 33.1003C94.5884 32.5689 94.5865 32.0375 94.5845 31.4899C94.5875 30.9993 94.5906 30.5088 94.5937 30.0033C94.5945 29.5703 94.5952 29.1372 94.596 28.691C94.9639 25.5567 98.8142 26.5312 101.199 26.5219Z" fill="white"/>
<path d="M54.5775 35.2068C54.9046 35.2066 55.2318 35.2063 55.5688 35.2061C56.2597 35.2072 56.9505 35.2119 57.6412 35.2199C58.6981 35.2313 59.7543 35.2298 60.8112 35.2266C65.9927 35.2474 65.9927 35.2474 67.6456 36.3496C67.7868 37.5733 67.8372 38.6771 67.8212 39.9009C67.8216 40.4268 67.8216 40.4268 67.8219 40.9632C67.8208 41.7047 67.8161 42.4461 67.8081 43.1876C67.7967 44.3244 67.7981 45.4606 67.8014 46.5974C67.7987 47.3171 67.7952 48.0368 67.791 48.7565C67.7916 49.2681 67.7916 49.2681 67.7923 49.79C67.7573 52.1961 67.7573 52.1961 66.6787 53.275C65.477 53.3715 64.3303 53.4104 63.1284 53.4035C62.7779 53.4044 62.4275 53.4053 62.0664 53.4063C61.3252 53.4069 60.5839 53.4051 59.8427 53.4011C58.7063 53.3959 57.5702 53.4011 56.4338 53.4073C55.7143 53.4066 54.9948 53.4054 54.2753 53.4035C53.9344 53.4054 53.5934 53.4074 53.2421 53.4094C50.8362 53.3862 50.8362 53.3862 49.7581 52.3079C49.5646 50.1111 49.5991 47.9074 49.6055 45.7031C49.607 44.6066 49.5957 43.5107 49.5834 42.4143C49.5823 41.7182 49.582 41.0221 49.5825 40.326C49.5811 39.6914 49.5796 39.0569 49.5781 38.4031C49.7581 36.8332 49.7581 36.8332 50.2837 35.9005C51.7104 35.1013 52.9534 35.203 54.5775 35.2068Z" fill="white"/>
</svg>
