<svg width="512" height="410" viewBox="0 0 512 410" fill="none" xmlns="http://www.w3.org/2000/svg">
<path d="M48.7794 367.126H47.6174V372.11C47.6174 372.651 47.4307 373.104 47.0574 373.468C46.6841 373.823 46.2127 374 45.6434 374H44.5094C43.9307 374 43.4547 373.823 43.0814 373.468C42.7081 373.104 42.5214 372.651 42.5214 372.11V371.522H43.9214V372.236C43.9214 372.357 43.9681 372.465 44.0614 372.558C44.1641 372.651 44.2807 372.698 44.4114 372.698H45.7134C45.8441 372.698 45.9561 372.651 46.0494 372.558C46.1521 372.465 46.2034 372.357 46.2034 372.236V367.126H44.9294V365.88H48.7794V367.126ZM57.0162 370.038V374H53.1522C52.5736 374 52.0976 373.823 51.7242 373.468C51.3509 373.113 51.1642 372.689 51.1642 372.194C51.1642 371.727 51.3509 371.331 51.7242 371.004C52.1069 370.668 52.5782 370.5 53.1382 370.5L55.6162 370.486V370.136C55.6162 369.912 55.5649 369.758 55.4622 369.674C55.3596 369.59 55.1542 369.548 54.8462 369.548H52.2002V368.26H55.0982C55.6302 368.26 56.0829 368.437 56.4562 368.792C56.8296 369.137 57.0162 369.553 57.0162 370.038ZM55.6162 372.754V371.718H53.0962C52.9562 371.718 52.8302 371.769 52.7182 371.872C52.6062 371.965 52.5502 372.087 52.5502 372.236C52.5502 372.376 52.5969 372.497 52.6902 372.6C52.7929 372.703 52.9096 372.754 53.0402 372.754H55.6162ZM65.9569 374H64.5569V369.982C64.5569 369.861 64.5055 369.753 64.4029 369.66C64.3095 369.567 64.1975 369.52 64.0669 369.52H63.1429C62.9842 369.52 62.8722 369.534 62.8069 369.562C62.7415 369.59 62.6482 369.66 62.5269 369.772L61.4909 370.626V374H60.0909V368.26H61.4909V369.086C61.5095 369.067 61.5749 369.007 61.6869 368.904C61.8082 368.801 61.8875 368.736 61.9249 368.708C61.9715 368.671 62.0462 368.615 62.1489 368.54C62.2515 368.465 62.3355 368.414 62.4009 368.386C62.4755 368.358 62.5642 368.33 62.6669 368.302C62.7789 368.274 62.8862 368.26 62.9889 368.26H64.0249C64.5942 368.26 65.0562 368.428 65.4109 368.764C65.7749 369.091 65.9569 369.52 65.9569 370.052V374Z" fill="white"/>
<path d="M149.443 367.182H145.663V369.282H148.575V370.612H145.663V374H144.263V365.88H149.443V367.182ZM157.532 371.816H153.08V372.292C153.08 372.413 153.126 372.521 153.22 372.614C153.322 372.707 153.439 372.754 153.57 372.754H156.79V374H153.668C153.089 374 152.613 373.827 152.24 373.482C151.866 373.127 151.68 372.679 151.68 372.138V370.122C151.68 369.581 151.866 369.137 152.24 368.792C152.613 368.437 153.089 368.26 153.668 368.26H155.544C156.122 368.26 156.598 368.437 156.972 368.792C157.345 369.137 157.532 369.581 157.532 370.122V371.816ZM156.132 370.598V370.01C156.132 369.879 156.085 369.772 155.992 369.688C155.898 369.595 155.782 369.548 155.642 369.548H153.57C153.439 369.548 153.322 369.595 153.22 369.688C153.126 369.781 153.08 369.889 153.08 370.01V370.598H156.132ZM166.549 372.11C166.549 372.651 166.363 373.104 165.989 373.468C165.616 373.823 165.14 374 164.561 374H160.613V365.88H162.013V368.918C162.209 368.731 162.354 368.601 162.447 368.526C162.541 368.451 162.681 368.372 162.867 368.288C163.063 368.195 163.264 368.148 163.469 368.148H164.547C165.126 368.139 165.602 368.316 165.975 368.68C166.358 369.044 166.549 369.497 166.549 370.038V372.11ZM165.149 372.278V369.884C165.149 369.763 165.098 369.655 164.995 369.562C164.902 369.469 164.79 369.422 164.659 369.422H163.637C163.469 369.422 163.353 369.436 163.287 369.464C163.231 369.483 163.138 369.553 163.007 369.674L162.013 370.542V372.754H164.659C164.79 372.754 164.902 372.707 164.995 372.614C165.098 372.521 165.149 372.409 165.149 372.278Z" fill="white"/>
<path d="M250.698 374H249.27V368.204L247.786 369.912H246.918L245.434 368.204V374H244.006V365.88H245.168L247.394 368.47C247.412 368.423 247.599 368.185 247.954 367.756C248.308 367.317 248.663 366.897 249.018 366.496L249.536 365.88H250.698V374ZM259.345 370.038V374H255.481C254.903 374 254.427 373.823 254.053 373.468C253.68 373.113 253.493 372.689 253.493 372.194C253.493 371.727 253.68 371.331 254.053 371.004C254.436 370.668 254.907 370.5 255.467 370.5L257.945 370.486V370.136C257.945 369.912 257.894 369.758 257.791 369.674C257.689 369.59 257.483 369.548 257.175 369.548H254.529V368.26H257.427C257.959 368.26 258.412 368.437 258.785 368.792C259.159 369.137 259.345 369.553 259.345 370.038ZM257.945 372.754V371.718H255.425C255.285 371.718 255.159 371.769 255.047 371.872C254.935 371.965 254.879 372.087 254.879 372.236C254.879 372.376 254.926 372.497 255.019 372.6C255.122 372.703 255.239 372.754 255.369 372.754H257.945ZM267.936 370.668H266.508V370.01C266.508 369.889 266.457 369.781 266.354 369.688C266.261 369.595 266.149 369.548 266.018 369.548H265.388C265.211 369.548 265.094 369.562 265.038 369.59C264.982 369.609 264.889 369.674 264.758 369.786L263.82 370.64V374H262.42V368.26H263.82V369.03C263.857 369.002 263.918 368.946 264.002 368.862C264.086 368.769 264.142 368.708 264.17 368.68C264.207 368.652 264.259 368.61 264.324 368.554C264.399 368.489 264.459 368.447 264.506 368.428C264.562 368.4 264.627 368.372 264.702 368.344C264.777 368.307 264.856 368.283 264.94 368.274C265.024 368.265 265.117 368.26 265.22 368.26H265.948C266.517 368.251 266.989 368.423 267.362 368.778C267.745 369.133 267.936 369.576 267.936 370.108V370.668Z" fill="white"/>
<path d="M352.126 369.058V374H350.712V371.438H347.38V374H345.966V369.058C345.966 368.75 346.003 368.498 346.078 368.302C346.152 368.106 346.292 367.91 346.498 367.714L348.43 365.88H349.662L351.594 367.714C351.799 367.91 351.939 368.106 352.014 368.302C352.088 368.498 352.126 368.75 352.126 369.058ZM350.712 370.206V369.128C350.712 368.895 350.651 368.717 350.53 368.596L349.032 367.112L347.562 368.596C347.44 368.717 347.38 368.895 347.38 369.128V370.206H350.712ZM361.01 371.298C361.01 371.839 360.819 372.287 360.436 372.642C360.063 372.997 359.587 373.174 359.008 373.174H356.6V375.232H355.2V368.26H359.008C359.587 368.26 360.063 368.437 360.436 368.792C360.819 369.147 361.01 369.595 361.01 370.136V371.298ZM359.568 371.41V370.01C359.568 369.879 359.521 369.772 359.428 369.688C359.335 369.595 359.218 369.548 359.078 369.548H356.6V371.872H359.078C359.218 371.872 359.335 371.83 359.428 371.746C359.521 371.653 359.568 371.541 359.568 371.41ZM369.609 370.668H368.181V370.01C368.181 369.889 368.129 369.781 368.027 369.688C367.933 369.595 367.821 369.548 367.691 369.548H367.061C366.883 369.548 366.767 369.562 366.711 369.59C366.655 369.609 366.561 369.674 366.431 369.786L365.493 370.64V374H364.093V368.26H365.493V369.03C365.53 369.002 365.591 368.946 365.675 368.862C365.759 368.769 365.815 368.708 365.843 368.68C365.88 368.652 365.931 368.61 365.997 368.554C366.071 368.489 366.132 368.447 366.179 368.428C366.235 368.4 366.3 368.372 366.375 368.344C366.449 368.307 366.529 368.283 366.613 368.274C366.697 368.265 366.79 368.26 366.893 368.26H367.621C368.19 368.251 368.661 368.423 369.035 368.778C369.417 369.133 369.609 369.576 369.609 370.108V370.668Z" fill="white"/>
<path d="M453.441 374H452.013V368.204L450.529 369.912H449.661L448.177 368.204V374H446.749V365.88H447.911L450.137 368.47C450.155 368.423 450.342 368.185 450.697 367.756C451.051 367.317 451.406 366.897 451.761 366.496L452.279 365.88H453.441V374ZM462.088 370.038V374H458.224C457.646 374 457.17 373.823 456.796 373.468C456.423 373.113 456.236 372.689 456.236 372.194C456.236 371.727 456.423 371.331 456.796 371.004C457.179 370.668 457.65 370.5 458.21 370.5L460.688 370.486V370.136C460.688 369.912 460.637 369.758 460.534 369.674C460.432 369.59 460.226 369.548 459.918 369.548H457.272V368.26H460.17C460.702 368.26 461.155 368.437 461.528 368.792C461.902 369.137 462.088 369.553 462.088 370.038ZM460.688 372.754V371.718H458.168C458.028 371.718 457.902 371.769 457.79 371.872C457.678 371.965 457.622 372.087 457.622 372.236C457.622 372.376 457.669 372.497 457.762 372.6C457.865 372.703 457.982 372.754 458.112 372.754H460.688ZM470.959 373.426C470.959 373.967 470.772 374.415 470.399 374.77C470.026 375.134 469.55 375.316 468.971 375.316H466.339V374H469.069C469.209 374 469.326 373.958 469.419 373.874C469.512 373.781 469.559 373.669 469.559 373.538V373.174H467.151C466.582 373.174 466.106 372.997 465.723 372.642C465.35 372.287 465.163 371.839 465.163 371.298V368.26H466.563V371.396C466.563 371.527 466.61 371.639 466.703 371.732C466.806 371.816 466.922 371.858 467.053 371.858H469.559V368.26H470.959V373.426Z" fill="white"/>
<line x1="54.2012" y1="337.25" x2="54.2012" y2="106.75" stroke="#E5E5EF" stroke-width="1.5" stroke-linecap="round" stroke-dasharray="4 7"/>
<line x1="255.25" y1="337.25" x2="255.25" y2="106.75" stroke="#E5E5EF" stroke-width="1.5" stroke-linecap="round" stroke-dasharray="4 7"/>
<line x1="357.201" y1="337.25" x2="357.201" y2="106.75" stroke="#E5E5EF" stroke-width="1.5" stroke-linecap="round" stroke-dasharray="4 7"/>
<line x1="460.201" y1="337.25" x2="460.201" y2="106.75" stroke="#E5E5EF" stroke-width="1.5" stroke-linecap="round" stroke-dasharray="4 7"/>
<path d="M2.95117 289.553C5.00857 288.242 9.8287 285.751 12.65 286.275C16.1766 286.931 19.2624 290.208 21.9075 292.175C24.5525 294.141 28.0792 292.83 31.8262 289.553C35.5733 286.275 39.5409 286.931 44.39 289.553C49.2392 292.175 52.3251 286.931 53.6476 284.746C54.9701 282.561 61.5746 275.351 67.4197 286.275C73.2647 297.2 78.5548 290.208 80.3181 288.242C82.0814 286.275 87.5919 286.931 90.2369 288.242C92.8819 289.553 97.7311 290.864 101.258 284.746C104.784 278.628 111.838 279.284 115.144 278.628C118.45 277.973 121.316 278.191 124.181 272.073C127.047 265.956 130.794 265.082 135.863 268.577C140.933 272.073 146.884 267.267 148.648 261.367C150.411 255.468 155.26 254.594 160.109 251.317C164.958 248.039 166.501 246.728 169.367 237.115C172.232 227.501 178.624 220.291 183.694 235.804C188.764 251.317 190.527 250.224 198.462 254.594C206.397 258.964 211.687 262.023 214.112 251.317C216.536 240.611 219.181 230.341 226.235 230.341C233.288 230.341 234.831 230.778 238.798 217.888C242.766 204.997 242.766 204.997 250.04 204.341C257.313 203.686 255.991 203.249 258.415 186.206C260.84 169.164 260.399 156.055 266.791 156.055C273.183 156.055 273.624 159.332 274.065 167.635C274.506 175.937 276.931 187.954 282.441 186.206C287.951 184.459 293.462 184.459 295.446 192.761C297.429 201.064 299.413 208.929 308.45 205.652C317.487 202.375 316.385 210.677 319.692 214.829C322.998 218.98 325.643 221.384 330.933 219.636C336.223 217.888 334.019 216.577 341.072 219.636C348.125 222.694 350.55 224.442 354.077 230.342C357.603 236.241 358.926 238.644 365.538 236.678C372.151 234.711 371.931 237.77 374.135 242.14C376.339 246.51 379.645 254.157 382.511 254.813C385.376 255.468 387.801 252.628 392.87 256.779C397.94 260.93 397.499 259.619 399.703 264.863C401.907 270.107 403.891 272.947 410.504 272.292C417.116 271.636 417.777 272.292 419.982 276.662C422.186 281.031 429.019 291.082 433.647 283.872C438.276 276.662 443.346 268.796 445.55 260.275C447.754 251.754 450.169 239.737 455.795 245.199C461.42 250.661 462.302 258.745 467.592 256.779C472.882 254.813 475.086 253.065 479.494 258.964C483.903 264.863 484.784 268.141 491.397 264.863C498.009 261.586 499.111 263.552 503.079 267.922C507.046 272.292 506.606 272.292 509.03 272.292" stroke="url(#paint0_linear_125_2133)" stroke-width="4" stroke-linecap="round"/>
<line x1="156.951" y1="251" x2="156.951" y2="337" stroke="#9291A5" stroke-width="2" stroke-linecap="round" stroke-dasharray="7 7"/>
<g filter="url(#filter0_d_125_2133)">
<circle cx="156.795" cy="249.844" r="10.8438" fill="#E1AA05"/>
<circle cx="156.795" cy="249.844" r="8.84375" stroke="#131019" stroke-width="4"/>
</g>
<path fill-rule="evenodd" clip-rule="evenodd" d="M145 182C133.402 182 124 191.402 124 203C124 214.598 133.402 224 145 224L148.377 224C148.414 224 148.449 224.016 148.474 224.044L154.996 231.185C155.789 232.053 157.157 232.053 157.95 231.185L164.472 224.044C164.497 224.016 164.532 224 164.569 224L167.946 224C179.544 224 188.946 214.598 188.946 203C188.946 191.402 179.544 182 167.946 182L145 182Z" fill="#EEB406" fill-opacity="0.16"/>
<path d="M150.362 205.84C150.362 206.459 150.149 206.976 149.722 207.392C149.295 207.797 148.751 208 148.09 208H145.674C145.013 208 144.469 207.797 144.042 207.392C143.615 206.976 143.402 206.459 143.402 205.84V205.184H145.002V205.92C145.002 206.08 145.055 206.219 145.162 206.336C145.279 206.453 145.413 206.512 145.562 206.512H148.202C148.351 206.512 148.479 206.453 148.586 206.336C148.703 206.219 148.762 206.08 148.762 205.92V203.984C148.762 203.749 148.698 203.563 148.57 203.424C148.453 203.285 148.309 203.216 148.138 203.216L143.626 203.28L143.754 198.72H149.898V200.208H145.29L145.226 201.792L147.914 201.728C148.607 201.717 149.189 201.936 149.658 202.384C150.127 202.832 150.362 203.376 150.362 204.016V205.84ZM159.302 199.92C159.302 200.283 159.195 200.651 158.982 201.024C158.779 201.397 158.576 201.691 158.374 201.904C158.182 202.107 157.894 202.384 157.51 202.736C156.848 203.333 156.422 203.771 156.23 204.048C155.984 204.4 155.862 204.736 155.862 205.056V208H154.198V205.104C154.198 204.645 154.31 204.203 154.534 203.776C154.768 203.339 155.046 202.96 155.366 202.64C155.696 202.309 156.027 202.005 156.358 201.728C156.688 201.44 156.966 201.168 157.19 200.912C157.424 200.645 157.542 200.411 157.542 200.208H152.598V198.72H159.174C159.259 199.275 159.302 199.675 159.302 199.92ZM168.707 205.648H167.619V208H165.987V205.648H161.699V203.264L166.243 198.72H167.619V204.144H168.707V205.648ZM165.987 204.144V201.152L163.299 203.824V204.144H165.987Z" fill="#EDB306"/>
<line x1="34.0898" y1="105.5" x2="477.64" y2="105.5" stroke="#E5E5EF"/>
<path d="M43.144 51.606C43.144 52.302 42.904 52.884 42.424 53.352C41.944 53.808 41.332 54.036 40.588 54.036H37.816C37.072 54.036 36.46 53.808 35.98 53.352C35.5 52.884 35.26 52.302 35.26 51.606V50.94H37.06V51.696C37.06 51.876 37.12 52.032 37.24 52.164C37.372 52.296 37.522 52.362 37.69 52.362H40.714C40.882 52.362 41.026 52.296 41.146 52.164C41.278 52.032 41.344 51.876 41.344 51.696V50.346C41.344 50.142 41.272 49.986 41.128 49.878C40.984 49.758 40.774 49.68 40.498 49.644C40.222 49.608 39.952 49.59 39.688 49.59C39.436 49.578 39.118 49.578 38.734 49.59C38.362 49.602 38.08 49.608 37.888 49.608C37.144 49.584 36.532 49.344 36.052 48.888C35.572 48.432 35.332 47.856 35.332 47.16V45.99C35.332 45.294 35.572 44.718 36.052 44.262C36.532 43.794 37.144 43.56 37.888 43.56H40.444C41.188 43.56 41.8 43.794 42.28 44.262C42.76 44.718 43 45.294 43 45.99V46.674H41.2V45.9C41.2 45.72 41.134 45.564 41.002 45.432C40.882 45.3 40.738 45.234 40.57 45.234H37.762C37.594 45.234 37.444 45.3 37.312 45.432C37.192 45.564 37.132 45.72 37.132 45.9V47.268C37.132 47.472 37.204 47.634 37.348 47.754C37.492 47.862 37.702 47.934 37.978 47.97C38.266 48.006 38.53 48.03 38.77 48.042C39.022 48.042 39.34 48.036 39.724 48.024C40.12 48 40.408 47.988 40.588 47.988C41.32 48.012 41.926 48.252 42.406 48.708C42.898 49.164 43.144 49.74 43.144 50.436V51.606ZM53.3703 51.57C53.3703 52.266 53.1303 52.848 52.6503 53.316C52.1703 53.772 51.5583 54 50.8143 54H49.5363C48.8043 54 48.1983 53.772 47.7183 53.316C47.2383 52.848 46.9983 52.266 46.9983 51.57V48.114H45.4863V46.476H46.9983V43.56H48.7983V46.476H50.5983V48.114H48.7983V51.732C48.7983 51.888 48.8583 52.026 48.9783 52.146C49.1103 52.266 49.2603 52.326 49.4283 52.326H50.9043C51.0723 52.326 51.2163 52.266 51.3363 52.146C51.4683 52.026 51.5343 51.888 51.5343 51.732V50.832H53.3703V51.57ZM62.6958 48.906V54H57.7278C56.9838 54 56.3718 53.772 55.8918 53.316C55.4118 52.86 55.1718 52.314 55.1718 51.678C55.1718 51.078 55.4118 50.568 55.8918 50.148C56.3838 49.716 56.9898 49.5 57.7098 49.5L60.8958 49.482V49.032C60.8958 48.744 60.8298 48.546 60.6978 48.438C60.5658 48.33 60.3018 48.276 59.9058 48.276H56.5038V46.62H60.2298C60.9138 46.62 61.4958 46.848 61.9758 47.304C62.4558 47.748 62.6958 48.282 62.6958 48.906ZM60.8958 52.398V51.066H57.6558C57.4758 51.066 57.3138 51.132 57.1698 51.264C57.0258 51.384 56.9538 51.54 56.9538 51.732C56.9538 51.912 57.0138 52.068 57.1338 52.2C57.2658 52.332 57.4158 52.398 57.5838 52.398H60.8958ZM73.0929 51.57C73.0929 52.266 72.8529 52.848 72.3729 53.316C71.8929 53.772 71.2809 54 70.5369 54H69.2589C68.5269 54 67.9209 53.772 67.4409 53.316C66.9609 52.848 66.7209 52.266 66.7209 51.57V48.114H65.2089V46.476H66.7209V43.56H68.5209V46.476H70.3209V48.114H68.5209V51.732C68.5209 51.888 68.5809 52.026 68.7009 52.146C68.8329 52.266 68.9829 52.326 69.1509 52.326H70.6269C70.7949 52.326 70.9389 52.266 71.0589 52.146C71.1909 52.026 71.2569 51.888 71.2569 51.732V50.832H73.0929V51.57ZM78.6025 45.378H76.6945V43.56H78.6025V45.378ZM80.1145 54H75.2545V52.398H76.7665V48.096H75.2545V46.476H78.5665V52.398H80.1145V54ZM89.8553 51.714C89.8553 52.338 89.6153 52.878 89.1353 53.334C88.6553 53.778 88.0433 54 87.2993 54H82.9073V52.362H87.4253C87.5933 52.362 87.7373 52.308 87.8573 52.2C87.9893 52.08 88.0553 51.936 88.0553 51.768C88.0553 51.408 87.8213 51.216 87.3533 51.192L85.0313 51.12C84.2753 51.096 83.6393 50.886 83.1233 50.49C82.6193 50.082 82.3673 49.566 82.3673 48.942C82.3673 48.306 82.6073 47.76 83.0873 47.304C83.5673 46.848 84.1793 46.62 84.9233 46.62H89.2253V48.258H84.7973C84.6293 48.258 84.4793 48.318 84.3473 48.438C84.2273 48.558 84.1673 48.708 84.1673 48.888C84.1673 49.056 84.2273 49.194 84.3473 49.302C84.4793 49.398 84.6773 49.464 84.9413 49.5C85.2053 49.524 85.4453 49.542 85.6613 49.554C85.8893 49.554 86.1833 49.554 86.5433 49.554C86.9153 49.542 87.1793 49.536 87.3353 49.536C88.0553 49.548 88.6553 49.77 89.1353 50.202C89.6153 50.622 89.8553 51.126 89.8553 51.714ZM99.9874 51.57C99.9874 52.266 99.7474 52.848 99.2674 53.316C98.7874 53.772 98.1754 54 97.4314 54H96.1534C95.4214 54 94.8154 53.772 94.3354 53.316C93.8554 52.848 93.6154 52.266 93.6154 51.57V48.114H92.1034V46.476H93.6154V43.56H95.4154V46.476H97.2154V48.114H95.4154V51.732C95.4154 51.888 95.4754 52.026 95.5954 52.146C95.7274 52.266 95.8774 52.326 96.0454 52.326H97.5214C97.6894 52.326 97.8334 52.266 97.9534 52.146C98.0854 52.026 98.1514 51.888 98.1514 51.732V50.832H99.9874V51.57ZM105.497 45.378H103.589V43.56H105.497V45.378ZM107.009 54H102.149V52.398H103.661V48.096H102.149V46.476H105.461V52.398H107.009V54ZM116.876 49.734H115.076V48.852C115.076 48.636 115.028 48.486 114.932 48.402C114.836 48.306 114.674 48.258 114.446 48.258H111.962C111.794 48.258 111.644 48.318 111.512 48.438C111.392 48.558 111.332 48.696 111.332 48.852V51.768C111.332 51.924 111.392 52.062 111.512 52.182C111.644 52.302 111.794 52.362 111.962 52.362H116.174V54H112.088C111.356 54 110.744 53.772 110.252 53.316C109.772 52.848 109.532 52.272 109.532 51.588V49.014C109.532 48.318 109.772 47.748 110.252 47.304C110.732 46.848 111.344 46.62 112.088 46.62H114.32C115.112 46.62 115.736 46.824 116.192 47.232C116.648 47.628 116.876 48.18 116.876 48.888V49.734ZM126.98 51.714C126.98 52.338 126.74 52.878 126.26 53.334C125.78 53.778 125.168 54 124.424 54H120.032V52.362H124.55C124.718 52.362 124.862 52.308 124.982 52.2C125.114 52.08 125.18 51.936 125.18 51.768C125.18 51.408 124.946 51.216 124.478 51.192L122.156 51.12C121.4 51.096 120.764 50.886 120.248 50.49C119.744 50.082 119.492 49.566 119.492 48.942C119.492 48.306 119.732 47.76 120.212 47.304C120.692 46.848 121.304 46.62 122.048 46.62H126.35V48.258H121.922C121.754 48.258 121.604 48.318 121.472 48.438C121.352 48.558 121.292 48.708 121.292 48.888C121.292 49.056 121.352 49.194 121.472 49.302C121.604 49.398 121.802 49.464 122.066 49.5C122.33 49.524 122.57 49.542 122.786 49.554C123.014 49.554 123.308 49.554 123.668 49.554C124.04 49.542 124.304 49.536 124.46 49.536C125.18 49.548 125.78 49.77 126.26 50.202C126.74 50.622 126.98 51.126 126.98 51.714Z" fill="#EEB406" fill-opacity="0.5"/>
<path d="M44.4 80.3C44.4 81.0733 44.1333 81.72 43.6 82.24C43.0667 82.7467 42.3867 83 41.56 83H35.6V71.4H41.56C42.3867 71.4 43.0667 71.66 43.6 72.18C44.1333 72.6867 44.4 73.3267 44.4 74.1V80.3ZM42.36 80.4V74C42.36 73.8 42.2867 73.6267 42.14 73.48C42.0067 73.3333 41.8467 73.26 41.66 73.26H37.6V81.14H41.66C41.8467 81.14 42.0067 81.0667 42.14 80.92C42.2867 80.7733 42.36 80.6 42.36 80.4ZM55.9522 79.88H49.5922V80.56C49.5922 80.7333 49.6589 80.8867 49.7922 81.02C49.9389 81.1533 50.1055 81.22 50.2922 81.22H54.8922V83H50.4322C49.6055 83 48.9255 82.7533 48.3922 82.26C47.8589 81.7533 47.5922 81.1133 47.5922 80.34V77.46C47.5922 76.6867 47.8589 76.0533 48.3922 75.56C48.9255 75.0533 49.6055 74.8 50.4322 74.8H53.1122C53.9389 74.8 54.6189 75.0533 55.1522 75.56C55.6855 76.0533 55.9522 76.6867 55.9522 77.46V79.88ZM53.9522 78.14V77.3C53.9522 77.1133 53.8855 76.96 53.7522 76.84C53.6189 76.7067 53.4522 76.64 53.2522 76.64H50.2922C50.1055 76.64 49.9389 76.7067 49.7922 76.84C49.6589 76.9733 49.5922 77.1267 49.5922 77.3V78.14H53.9522ZM67.5147 79.88H61.1547V80.56C61.1547 80.7333 61.2214 80.8867 61.3547 81.02C61.5014 81.1533 61.668 81.22 61.8547 81.22H66.4547V83H61.9947C61.168 83 60.488 82.7533 59.9547 82.26C59.4214 81.7533 59.1547 81.1133 59.1547 80.34V77.46C59.1547 76.6867 59.4214 76.0533 59.9547 75.56C60.488 75.0533 61.168 74.8 61.9947 74.8H64.6747C65.5014 74.8 66.1814 75.0533 66.7147 75.56C67.248 76.0533 67.5147 76.6867 67.5147 77.46V79.88ZM65.5147 78.14V77.3C65.5147 77.1133 65.448 76.96 65.3147 76.84C65.1814 76.7067 65.0147 76.64 64.8147 76.64H61.8547C61.668 76.64 61.5014 76.7067 61.3547 76.84C61.2214 76.9733 61.1547 77.1267 61.1547 77.3V78.14H65.5147ZM79.0172 79.14C79.0172 79.9133 78.7439 80.5533 78.1972 81.06C77.6639 81.5667 76.9839 81.82 76.1572 81.82H72.7172V84.76H70.7172V74.8H76.1572C76.9839 74.8 77.6639 75.0533 78.1972 75.56C78.7439 76.0667 79.0172 76.7067 79.0172 77.48V79.14ZM76.9572 79.3V77.3C76.9572 77.1133 76.8905 76.96 76.7572 76.84C76.6239 76.7067 76.4572 76.64 76.2572 76.64H72.7172V79.96H76.2572C76.4572 79.96 76.6239 79.9 76.7572 79.78C76.8905 79.6467 76.9572 79.4867 76.9572 79.3ZM90.5811 74.92H88.5411V73.92C88.5411 73.7467 88.4678 73.5933 88.3211 73.46C88.1878 73.3267 88.0278 73.26 87.8411 73.26H86.2011C86.0144 73.26 85.8478 73.3267 85.7011 73.46C85.5678 73.5933 85.5011 73.7467 85.5011 73.92V76.26H87.7411V78.16H85.5011V83H83.5011V78.16H81.8211V76.26H83.5011V73.98C83.5011 73.2067 83.7611 72.5867 84.2811 72.12C84.8144 71.64 85.4944 71.4 86.3211 71.4H87.6611C88.4878 71.4 89.1811 71.6533 89.7411 72.16C90.3011 72.6533 90.5811 73.2867 90.5811 74.06V74.92ZM100.142 77.34V83H94.622C93.7954 83 93.1154 82.7467 92.582 82.24C92.0487 81.7333 91.782 81.1267 91.782 80.42C91.782 79.7533 92.0487 79.1867 92.582 78.72C93.1287 78.24 93.802 78 94.602 78L98.142 77.98V77.48C98.142 77.16 98.0687 76.94 97.922 76.82C97.7754 76.7 97.482 76.64 97.042 76.64H93.262V74.8H97.402C98.162 74.8 98.8087 75.0533 99.342 75.56C99.8754 76.0533 100.142 76.6467 100.142 77.34ZM98.142 81.22V79.74H94.542C94.342 79.74 94.162 79.8133 94.002 79.96C93.842 80.0933 93.762 80.2667 93.762 80.48C93.762 80.68 93.8287 80.8533 93.962 81C94.1087 81.1467 94.2754 81.22 94.462 81.22H98.142ZM111.374 82.06L109.834 83.32L106.874 79.88L105.334 81.38V83H103.334V71.4H105.334V78.78L109.894 74.32L111.354 75.68L108.314 78.56L111.374 82.06ZM122.515 79.88H116.155V80.56C116.155 80.7333 116.221 80.8867 116.355 81.02C116.501 81.1533 116.668 81.22 116.855 81.22H121.455V83H116.995C116.168 83 115.488 82.7533 114.955 82.26C114.421 81.7533 114.155 81.1133 114.155 80.34V77.46C114.155 76.6867 114.421 76.0533 114.955 75.56C115.488 75.0533 116.168 74.8 116.995 74.8H119.675C120.501 74.8 121.181 75.0533 121.715 75.56C122.248 76.0533 122.515 76.6867 122.515 77.46V79.88ZM120.515 78.14V77.3C120.515 77.1133 120.448 76.96 120.315 76.84C120.181 76.7067 120.015 76.64 119.815 76.64H116.855C116.668 76.64 116.501 76.7067 116.355 76.84C116.221 76.9733 116.155 77.1267 116.155 77.3V78.14H120.515ZM141.469 80.3C141.469 81.0733 141.203 81.72 140.669 82.24C140.136 82.7467 139.456 83 138.629 83H135.549C134.723 83 134.043 82.7467 133.509 82.24C132.976 81.72 132.709 81.0733 132.709 80.3V74.1C132.709 73.3267 132.976 72.6867 133.509 72.18C134.043 71.66 134.723 71.4 135.549 71.4H138.669C139.483 71.4 140.149 71.6733 140.669 72.22C141.203 72.7667 141.469 73.4333 141.469 74.22V74.92H139.429V74.04C139.429 73.84 139.356 73.6667 139.209 73.52C139.076 73.3733 138.916 73.3 138.729 73.3H135.449C135.263 73.3 135.096 73.3733 134.949 73.52C134.816 73.6667 134.749 73.84 134.749 74.04V80.38C134.749 80.58 134.816 80.7533 134.949 80.9C135.096 81.0467 135.263 81.12 135.449 81.12H138.729C138.916 81.12 139.076 81.0467 139.209 80.9C139.356 80.7533 139.429 80.58 139.429 80.38V79.48H141.469V80.3ZM152.543 78.24H150.503V77.3C150.503 77.1267 150.429 76.9733 150.283 76.84C150.149 76.7067 149.989 76.64 149.803 76.64H148.903C148.649 76.64 148.483 76.66 148.403 76.7C148.323 76.7267 148.189 76.82 148.003 76.98L146.663 78.2V83H144.663V74.8H146.663V75.9C146.716 75.86 146.803 75.78 146.923 75.66C147.043 75.5267 147.123 75.44 147.163 75.4C147.216 75.36 147.289 75.3 147.383 75.22C147.489 75.1267 147.576 75.0667 147.643 75.04C147.723 75 147.816 74.96 147.923 74.92C148.029 74.8667 148.143 74.8333 148.263 74.82C148.383 74.8067 148.516 74.8 148.663 74.8H149.703C150.516 74.7867 151.189 75.0333 151.723 75.54C152.269 76.0467 152.543 76.68 152.543 77.44V78.24ZM158.754 73.42H156.634V71.4H158.754V73.42ZM160.434 83H155.034V81.22H156.714V76.44H155.034V74.64H158.714V81.22H160.434V83ZM174.917 83H172.877V77.24C172.877 76.8 172.683 76.58 172.297 76.58H171.897C171.777 76.58 171.683 76.5867 171.617 76.6C171.55 76.6133 171.503 76.6267 171.477 76.64C171.45 76.6533 171.403 76.7 171.337 76.78C171.27 76.8467 171.21 76.9 171.157 76.94L170.197 77.76V83H168.157V77.24C168.157 76.8 167.963 76.58 167.577 76.58H167.377C167.217 76.58 167.07 76.64 166.937 76.76L165.277 78.16V83H163.237V74.8H165.277V75.98C165.317 75.9533 165.41 75.8667 165.557 75.72C165.703 75.5733 165.803 75.48 165.857 75.44C165.91 75.3867 166.003 75.3067 166.137 75.2C166.283 75.0933 166.403 75.02 166.497 74.98C166.59 74.94 166.703 74.9 166.837 74.86C166.983 74.82 167.13 74.8 167.277 74.8H167.577C168.51 74.8 169.217 75.1733 169.697 75.92C169.75 75.8667 169.837 75.7867 169.957 75.68C170.077 75.5733 170.15 75.5067 170.177 75.48C170.217 75.44 170.283 75.38 170.377 75.3C170.47 75.22 170.537 75.1733 170.577 75.16C170.617 75.1333 170.677 75.0933 170.757 75.04C170.837 74.9867 170.903 74.96 170.957 74.96C171.023 74.9467 171.103 74.9267 171.197 74.9C171.29 74.86 171.383 74.84 171.477 74.84C171.57 74.8267 171.677 74.82 171.797 74.82C171.917 74.8067 172.05 74.8 172.197 74.8C173.01 74.7867 173.663 75.0333 174.157 75.54C174.663 76.0467 174.917 76.6867 174.917 77.46V83ZM186.48 79.88H180.12V80.56C180.12 80.7333 180.186 80.8867 180.32 81.02C180.466 81.1533 180.633 81.22 180.82 81.22H185.42V83H180.96C180.133 83 179.453 82.7533 178.92 82.26C178.386 81.7533 178.12 81.1133 178.12 80.34V77.46C178.12 76.6867 178.386 76.0533 178.92 75.56C179.453 75.0533 180.133 74.8 180.96 74.8H183.64C184.466 74.8 185.146 75.0533 185.68 75.56C186.213 76.0533 186.48 76.6867 186.48 77.46V79.88ZM184.48 78.14V77.3C184.48 77.1133 184.413 76.96 184.28 76.84C184.146 76.7067 183.98 76.64 183.78 76.64H180.82C180.633 76.64 180.466 76.7067 180.32 76.84C180.186 76.9733 180.12 77.1267 180.12 77.3V78.14H184.48ZM205.434 80.3C205.434 81.0733 205.168 81.72 204.634 82.24C204.101 82.7467 203.421 83 202.594 83H199.514C198.688 83 198.008 82.7467 197.474 82.24C196.941 81.72 196.674 81.0733 196.674 80.3V74.1C196.674 73.3267 196.941 72.6867 197.474 72.18C198.008 71.66 198.688 71.4 199.514 71.4H202.634C203.448 71.4 204.114 71.6733 204.634 72.22C205.168 72.7667 205.434 73.4333 205.434 74.22V74.92H203.394V74.04C203.394 73.84 203.321 73.6667 203.174 73.52C203.041 73.3733 202.881 73.3 202.694 73.3H199.414C199.228 73.3 199.061 73.3733 198.914 73.52C198.781 73.6667 198.714 73.84 198.714 74.04V80.38C198.714 80.58 198.781 80.7533 198.914 80.9C199.061 81.0467 199.228 81.12 199.414 81.12H202.694C202.881 81.12 203.041 81.0467 203.174 80.9C203.321 80.7533 203.394 80.58 203.394 80.38V79.48H205.434V80.3ZM217.067 80.32C217.067 81.08 216.787 81.72 216.227 82.24C215.681 82.7467 215.001 83 214.187 83H211.307C210.494 83 209.807 82.7467 209.247 82.24C208.701 81.72 208.427 81.08 208.427 80.32V77.48C208.427 76.72 208.701 76.0867 209.247 75.58C209.807 75.06 210.494 74.8 211.307 74.8H214.187C215.001 74.8 215.681 75.06 216.227 75.58C216.787 76.0867 217.067 76.72 217.067 77.48V80.32ZM215.067 80.52V77.28C215.067 77.0933 215.001 76.94 214.867 76.82C214.734 76.6867 214.567 76.62 214.367 76.62H211.127C210.941 76.62 210.774 76.6867 210.627 76.82C210.494 76.9533 210.427 77.1067 210.427 77.28V80.52C210.427 80.6933 210.494 80.8467 210.627 80.98C210.774 81.1133 210.941 81.18 211.127 81.18H214.367C214.567 81.18 214.734 81.12 214.867 81C215.001 80.8667 215.067 80.7067 215.067 80.52ZM231.753 83H229.713V77.24C229.713 76.8 229.519 76.58 229.133 76.58H228.733C228.613 76.58 228.519 76.5867 228.453 76.6C228.386 76.6133 228.339 76.6267 228.313 76.64C228.286 76.6533 228.239 76.7 228.173 76.78C228.106 76.8467 228.046 76.9 227.993 76.94L227.033 77.76V83H224.993V77.24C224.993 76.8 224.799 76.58 224.413 76.58H224.213C224.053 76.58 223.906 76.64 223.773 76.76L222.113 78.16V83H220.073V74.8H222.113V75.98C222.153 75.9533 222.246 75.8667 222.393 75.72C222.539 75.5733 222.639 75.48 222.693 75.44C222.746 75.3867 222.839 75.3067 222.973 75.2C223.119 75.0933 223.239 75.02 223.333 74.98C223.426 74.94 223.539 74.9 223.673 74.86C223.819 74.82 223.966 74.8 224.113 74.8H224.413C225.346 74.8 226.053 75.1733 226.533 75.92C226.586 75.8667 226.673 75.7867 226.793 75.68C226.913 75.5733 226.986 75.5067 227.013 75.48C227.053 75.44 227.119 75.38 227.213 75.3C227.306 75.22 227.373 75.1733 227.413 75.16C227.453 75.1333 227.513 75.0933 227.593 75.04C227.673 74.9867 227.739 74.96 227.793 74.96C227.859 74.9467 227.939 74.9267 228.033 74.9C228.126 74.86 228.219 74.84 228.313 74.84C228.406 74.8267 228.513 74.82 228.633 74.82C228.753 74.8067 228.886 74.8 229.033 74.8C229.846 74.7867 230.499 75.0333 230.993 75.54C231.499 76.0467 231.753 76.6867 231.753 77.46V83ZM243.255 79.14C243.255 79.9133 242.982 80.5533 242.435 81.06C241.902 81.5667 241.222 81.82 240.395 81.82H236.955V84.76H234.955V74.8H240.395C241.222 74.8 241.902 75.0533 242.435 75.56C242.982 76.0667 243.255 76.7067 243.255 77.48V79.14ZM241.195 79.3V77.3C241.195 77.1133 241.129 76.96 240.995 76.84C240.862 76.7067 240.695 76.64 240.495 76.64H236.955V79.96H240.495C240.695 79.96 240.862 79.9 240.995 79.78C241.129 79.6467 241.195 79.4867 241.195 79.3ZM251.859 83H246.459V81.22H248.159V73.18H246.459V71.4H250.159V81.22H251.859V83ZM262.525 77.34V83H257.005C256.178 83 255.498 82.7467 254.965 82.24C254.432 81.7333 254.165 81.1267 254.165 80.42C254.165 79.7533 254.432 79.1867 254.965 78.72C255.512 78.24 256.185 78 256.985 78L260.525 77.98V77.48C260.525 77.16 260.452 76.94 260.305 76.82C260.158 76.7 259.865 76.64 259.425 76.64H255.645V74.8H259.785C260.545 74.8 261.192 75.0533 261.725 75.56C262.258 76.0533 262.525 76.6467 262.525 77.34ZM260.525 81.22V79.74H256.925C256.725 79.74 256.545 79.8133 256.385 79.96C256.225 80.0933 256.145 80.2667 256.145 80.48C256.145 80.68 256.212 80.8533 256.345 81C256.492 81.1467 256.658 81.22 256.845 81.22H260.525ZM269.437 73.42H267.317V71.4H269.437V73.42ZM271.117 83H265.717V81.22H267.397V76.44H265.717V74.64H269.397V81.22H271.117V83ZM282.3 83H280.3V77.26C280.3 77.0867 280.227 76.9333 280.08 76.8C279.947 76.6667 279.787 76.6 279.6 76.6H278.28C278.054 76.6 277.894 76.62 277.8 76.66C277.707 76.7 277.574 76.8 277.4 76.96L275.92 78.18V83H273.92V74.8H275.92V75.98C275.947 75.9533 276.04 75.8667 276.2 75.72C276.374 75.5733 276.487 75.48 276.54 75.44C276.607 75.3867 276.714 75.3067 276.86 75.2C277.007 75.0933 277.127 75.02 277.22 74.98C277.327 74.94 277.454 74.9 277.6 74.86C277.76 74.82 277.914 74.8 278.06 74.8H279.54C280.354 74.8 281.014 75.04 281.52 75.52C282.04 75.9867 282.3 76.6 282.3 77.36V83ZM293.862 80.3C293.862 81.0733 293.596 81.72 293.062 82.24C292.529 82.7467 291.849 83 291.022 83H289.602C288.789 83 288.116 82.7467 287.582 82.24C287.049 81.72 286.782 81.0733 286.782 80.3V76.46H285.102V74.64H286.782V71.4H288.782V74.64H290.782V76.46H288.782V80.48C288.782 80.6533 288.849 80.8067 288.982 80.94C289.129 81.0733 289.296 81.14 289.482 81.14H291.122C291.309 81.14 291.469 81.0733 291.602 80.94C291.749 80.8067 291.822 80.6533 291.822 80.48V79.48H293.862V80.3ZM304.284 80.46C304.284 81.1533 304.017 81.7533 303.484 82.26C302.951 82.7533 302.271 83 301.444 83H296.564V81.18H301.584C301.771 81.18 301.931 81.12 302.064 81C302.211 80.8667 302.284 80.7067 302.284 80.52C302.284 80.12 302.024 79.9067 301.504 79.88L298.924 79.8C298.084 79.7733 297.377 79.54 296.804 79.1C296.244 78.6467 295.964 78.0733 295.964 77.38C295.964 76.6733 296.231 76.0667 296.764 75.56C297.297 75.0533 297.977 74.8 298.804 74.8H303.584V76.62H298.664C298.477 76.62 298.311 76.6867 298.164 76.82C298.031 76.9533 297.964 77.12 297.964 77.32C297.964 77.5067 298.031 77.66 298.164 77.78C298.311 77.8867 298.531 77.96 298.824 78C299.117 78.0267 299.384 78.0467 299.624 78.06C299.877 78.06 300.204 78.06 300.604 78.06C301.017 78.0467 301.311 78.04 301.484 78.04C302.284 78.0533 302.951 78.3 303.484 78.78C304.017 79.2467 304.284 79.8067 304.284 80.46Z" fill="white"/>
<path d="M406.076 45.5399H403.9V50.2439H400.636V45.5399H392.06V40.7719L401.148 31.6839H403.9V42.5319H406.076V45.5399ZM400.636 42.5319V36.5479L395.26 41.8919V42.5319H400.636ZM415.481 49.0599C415.481 49.6999 415.321 50.1799 415.001 50.4999L412.473 53.5719L411.417 52.8359L412.985 50.3079V50.0519H411.897C411.683 50.0519 411.577 49.9452 411.577 49.7319V46.8519C411.577 46.6386 411.683 46.5319 411.897 46.5319H415.161C415.374 46.5319 415.481 46.6386 415.481 46.8519V49.0599ZM434.851 45.9239C434.851 47.1612 434.425 48.1959 433.571 49.0279C432.718 49.8386 431.63 50.2439 430.307 50.2439H425.635C424.313 50.2439 423.225 49.8386 422.371 49.0279C421.518 48.1959 421.091 47.1612 421.091 45.9239V44.6119H424.291V46.0839C424.291 46.4039 424.398 46.6812 424.611 46.9159C424.846 47.1506 425.113 47.2679 425.411 47.2679H430.531C430.83 47.2679 431.086 47.1506 431.299 46.9159C431.534 46.6812 431.651 46.4039 431.651 46.0839V43.5879C431.651 43.2892 431.566 43.0332 431.395 42.8199C431.225 42.6066 431.043 42.4999 430.851 42.4999H425.795V39.4279H430.851C431.043 39.4279 431.225 39.3212 431.395 39.1079C431.566 38.8946 431.651 38.6386 431.651 38.3399V35.8439C431.651 35.5239 431.534 35.2466 431.299 35.0119C431.086 34.7772 430.83 34.6599 430.531 34.6599H425.411C425.113 34.6599 424.846 34.7772 424.611 35.0119C424.398 35.2466 424.291 35.5239 424.291 35.8439V37.5719H421.091V36.0039C421.091 34.7666 421.518 33.7426 422.371 32.9319C423.225 32.0999 424.313 31.6839 425.635 31.6839H430.307C431.63 31.6839 432.718 32.0999 433.571 32.9319C434.425 33.7426 434.851 34.7666 434.851 36.0039V38.1479C434.851 39.2146 434.478 40.1532 433.731 40.9639C434.478 41.7746 434.851 42.7132 434.851 43.7799V45.9239ZM452.734 34.0839C452.734 34.8092 452.521 35.5452 452.094 36.2919C451.689 37.0386 451.284 37.6252 450.878 38.0519C450.494 38.4572 449.918 39.0119 449.15 39.7159C447.828 40.9106 446.974 41.7852 446.59 42.3399C446.1 43.0439 445.854 43.7159 445.854 44.3559V50.2439H442.526V44.4519C442.526 43.5346 442.75 42.6492 443.198 41.7959C443.668 40.9212 444.222 40.1639 444.862 39.5239C445.524 38.8626 446.185 38.2546 446.846 37.6999C447.508 37.1239 448.062 36.5799 448.51 36.0679C448.98 35.5346 449.214 35.0652 449.214 34.6599H439.326V31.6839H452.478C452.649 32.7932 452.734 33.5932 452.734 34.0839ZM471.449 45.9239C471.449 47.1612 471.022 48.1959 470.169 49.0279C469.315 49.8386 468.227 50.2439 466.905 50.2439H462.073C460.75 50.2439 459.662 49.8386 458.809 49.0279C457.955 48.1959 457.529 47.1612 457.529 45.9239V44.6119H460.729V46.0839C460.729 46.4039 460.835 46.6812 461.049 46.9159C461.283 47.1506 461.55 47.2679 461.849 47.2679H467.129C467.427 47.2679 467.683 47.1506 467.897 46.9159C468.131 46.6812 468.249 46.4039 468.249 46.0839V42.2119C468.249 41.7426 468.121 41.3692 467.865 41.0919C467.63 40.8146 467.342 40.6759 467.001 40.6759L457.977 40.8039L458.233 31.6839H470.521V34.6599H461.305L461.177 37.8279L466.553 37.6999C467.939 37.6786 469.102 38.1159 470.041 39.0119C470.979 39.9079 471.449 40.9959 471.449 42.2759V45.9239Z" fill="white"/>
<circle cx="411.122" cy="73.1219" r="10.8781" fill="#00D17A"/>
<path d="M413.564 71.9628L413.273 72.2547C411.711 73.8167 410.149 75.3787 408.586 76.941C408.27 77.257 407.897 77.3262 407.524 77.1536C407.165 76.9847 406.967 76.6755 407.02 76.3016C407.067 76.0315 407.194 75.7819 407.385 75.5853C408.896 74.0475 410.426 72.5293 411.95 71.0052L412.239 70.7165C412.146 70.7006 412.052 70.6896 411.957 70.6837C411.346 70.681 410.735 70.6869 410.124 70.6791C409.64 70.6737 409.307 70.3408 409.3 69.8781C409.294 69.3736 409.597 69.0352 410.103 69.0321C411.508 69.023 412.913 69.0219 414.317 69.0289C414.885 69.0321 415.205 69.339 415.215 69.9005C415.241 71.2942 415.256 72.6881 415.261 74.0821C415.263 74.5931 414.931 74.8936 414.423 74.8895C413.944 74.885 413.629 74.5771 413.614 74.0808C413.599 73.4915 413.597 72.9018 413.589 72.3121C413.587 72.2192 413.575 72.1281 413.564 71.9628Z" fill="white"/>
<path d="M435.35 75.6921C435.35 76.3881 435.11 76.9701 434.63 77.4381C434.15 77.8941 433.538 78.1221 432.794 78.1221H430.166C429.422 78.1221 428.81 77.8941 428.33 77.4381C427.85 76.9701 427.61 76.3881 427.61 75.6921V74.9541H429.41V75.7821C429.41 75.9621 429.47 76.1181 429.59 76.2501C429.722 76.3821 429.872 76.4481 430.04 76.4481H432.92C433.088 76.4481 433.232 76.3821 433.352 76.2501C433.484 76.1181 433.55 75.9621 433.55 75.7821V74.3781C433.55 74.2101 433.502 74.0661 433.406 73.9461C433.31 73.8261 433.208 73.7661 433.1 73.7661H430.256V72.0381H433.1C433.208 72.0381 433.31 71.9781 433.406 71.8581C433.502 71.7381 433.55 71.5941 433.55 71.4261V70.0221C433.55 69.8421 433.484 69.6861 433.352 69.5541C433.232 69.4221 433.088 69.3561 432.92 69.3561H430.04C429.872 69.3561 429.722 69.4221 429.59 69.5541C429.47 69.6861 429.41 69.8421 429.41 70.0221V70.9941H427.61V70.1121C427.61 69.4161 427.85 68.8401 428.33 68.3841C428.81 67.9161 429.422 67.6821 430.166 67.6821H432.794C433.538 67.6821 434.15 67.9161 434.63 68.3841C435.11 68.8401 435.35 69.4161 435.35 70.1121V71.3181C435.35 71.9181 435.14 72.4461 434.72 72.9021C435.14 73.3581 435.35 73.8861 435.35 74.4861V75.6921ZM440.693 77.9421C440.693 78.0621 440.633 78.1221 440.513 78.1221H438.677C438.557 78.1221 438.497 78.0621 438.497 77.9421V76.1061C438.497 75.9861 438.557 75.9261 438.677 75.9261H440.513C440.633 75.9261 440.693 75.9861 440.693 76.1061V77.9421ZM448.947 78.1221H443.799V76.5201H445.455V70.3641L444.663 71.0661L443.547 70.0041L445.797 67.6821H447.255V76.5201H448.947V78.1221ZM459.469 75.6921C459.469 76.3881 459.229 76.9701 458.749 77.4381C458.269 77.8941 457.657 78.1221 456.913 78.1221H454.195C453.451 78.1221 452.839 77.8941 452.359 77.4381C451.879 76.9701 451.639 76.3881 451.639 75.6921V74.9541H453.439V75.7821C453.439 75.9621 453.499 76.1181 453.619 76.2501C453.751 76.3821 453.901 76.4481 454.069 76.4481H457.039C457.207 76.4481 457.351 76.3821 457.471 76.2501C457.603 76.1181 457.669 75.9621 457.669 75.7821V73.6041C457.669 73.3401 457.597 73.1301 457.453 72.9741C457.321 72.8181 457.159 72.7401 456.967 72.7401L451.891 72.8121L452.035 67.6821H458.947V69.3561H453.763L453.691 71.1381L456.715 71.0661C457.495 71.0541 458.149 71.3001 458.677 71.8041C459.205 72.3081 459.469 72.9201 459.469 73.6401V75.6921ZM466.844 70.4181C466.844 70.8381 466.688 71.2041 466.376 71.5161C466.064 71.8161 465.686 71.9661 465.242 71.9661H463.946C463.502 71.9661 463.124 71.8161 462.812 71.5161C462.5 71.2041 462.344 70.8381 462.344 70.4181V69.1761C462.344 68.7561 462.5 68.3961 462.812 68.0961C463.124 67.7961 463.502 67.6461 463.946 67.6461H465.242C465.686 67.6461 466.064 67.7961 466.376 68.0961C466.688 68.3961 466.844 68.7561 466.844 69.1761V70.4181ZM472.298 67.8441L464.432 79.0401L462.902 77.9601L470.768 66.7641L472.298 67.8441ZM472.568 76.9881C472.568 77.4081 472.412 77.7681 472.1 78.0681C471.788 78.3681 471.41 78.5181 470.966 78.5181H469.67C469.226 78.5181 468.848 78.3681 468.536 78.0681C468.224 77.7681 468.068 77.4081 468.068 76.9881V75.7461C468.068 75.3261 468.224 74.9661 468.536 74.6661C468.848 74.3541 469.226 74.1981 469.67 74.1981H470.966C471.41 74.1981 471.788 74.3541 472.1 74.6661C472.412 74.9661 472.568 75.3261 472.568 75.7461V76.9881ZM465.296 70.2741V69.3201C465.296 69.2001 465.236 69.1401 465.116 69.1401H464.09C463.97 69.1401 463.91 69.2001 463.91 69.3201V70.2741C463.91 70.3941 463.97 70.4541 464.09 70.4541H465.116C465.236 70.4541 465.296 70.3941 465.296 70.2741ZM471.02 76.8261V75.8721C471.02 75.7521 470.96 75.6921 470.84 75.6921H469.814C469.694 75.6921 469.634 75.7521 469.634 75.8721V76.8261C469.634 76.9461 469.694 77.0061 469.814 77.0061H470.84C470.96 77.0061 471.02 76.9461 471.02 76.8261Z" fill="#00D17A"/>
<defs>
<filter id="filter0_d_125_2133" x="137.951" y="239" width="37.6875" height="37.6875" filterUnits="userSpaceOnUse" color-interpolation-filters="sRGB">
<feFlood flood-opacity="0" result="BackgroundImageFix"/>
<feColorMatrix in="SourceAlpha" type="matrix" values="0 0 0 0 0 0 0 0 0 0 0 0 0 0 0 0 0 0 127 0" result="hardAlpha"/>
<feOffset dy="8"/>
<feGaussianBlur stdDeviation="4"/>
<feComposite in2="hardAlpha" operator="out"/>
<feColorMatrix type="matrix" values="0 0 0 0 0.0509804 0 0 0 0 0.0392157 0 0 0 0 0.172549 0 0 0 0.08 0"/>
<feBlend mode="normal" in2="BackgroundImageFix" result="effect1_dropShadow_125_2133"/>
<feBlend mode="normal" in="SourceGraphic" in2="effect1_dropShadow_125_2133" result="shape"/>
</filter>
<linearGradient id="paint0_linear_125_2133" x1="2.95117" y1="215.053" x2="509.03" y2="215.053" gradientUnits="userSpaceOnUse">
<stop stop-color="#FFC107"/>
<stop offset="1" stop-color="#654C00"/>
</linearGradient>
</defs>
</svg>
