<svg width="171" height="178" viewBox="0 0 171 178" fill="none" xmlns="http://www.w3.org/2000/svg">
<path d="M0 169.999C0 174.417 3.58166 178 7.99994 178C22.2138 178 36.4707 178 50.9997 178C55.418 178 59 174.418 59 170C59 135.985 59 101.91 59 67.0003C59 62.582 62.552 59 66.9703 59C90.2231 59 139.031 59 162.528 59C166.946 59 170.5 55.4183 170.5 51.0001C170.5 36.7862 170.5 22.5293 170.5 8.00029C170.5 3.58202 166.921 0 162.503 0C122.983 0 48.3004 0 7.99691 0C3.57863 0 0 3.58167 0 7.99994C0 61.4847 0 115.037 0 169.999Z" fill="#EEB406"/>
</svg>
