<svg width="171" height="178" viewBox="0 0 171 178" fill="none" xmlns="http://www.w3.org/2000/svg">
<path d="M171 8.0012C171 3.58292 167.418 0 163 0C148.786 0 134.529 0 120 0C115.582 0 112 3.58168 112 7.99996C112 42.0149 112 76.0905 112 111C112 115.418 108.448 119 104.03 119C80.7769 119 31.9691 119 8.47195 119C4.05368 119 0.5 122.582 0.5 127C0.5 141.214 0.5 155.471 0.5 170C0.5 174.418 4.07852 178 8.4968 178C48.0174 178 122.7 178 163.003 178C167.421 178 171 174.418 171 170C171 116.515 171 62.9635 171 8.0012Z" fill="#EEB406"/>
</svg>
