<svg width="171" height="178" viewBox="0 0 171 178" fill="none" xmlns="http://www.w3.org/2000/svg">
<path d="M171 169.999C171 174.417 167.418 178 163 178C148.786 178 134.529 178 120 178C115.582 178 112 174.418 112 170C112 135.985 112 101.91 112 67.0003C112 62.582 108.448 59 104.03 59C80.7769 59 31.9691 59 8.47195 59C4.05368 59 0.5 55.4183 0.5 51.0001C0.5 36.7862 0.5 22.5293 0.5 8.00029C0.5 3.58202 4.07852 0 8.4968 0C48.0174 0 122.7 0 163.003 0C167.421 0 171 3.58167 171 7.99994C171 61.4847 171 115.037 171 169.999Z" fill="#EEB406"/>
</svg>
