<svg width="171" height="178" viewBox="0 0 171 178" fill="none" xmlns="http://www.w3.org/2000/svg">
<path d="M0 8.0012C0 3.58292 3.58166 0 7.99994 0C22.2138 0 36.4707 0 50.9997 0C55.418 0 59 3.58168 59 7.99996C59 42.0149 59 76.0905 59 111C59 115.418 62.552 119 66.9703 119C90.2231 119 139.031 119 162.528 119C166.946 119 170.5 122.582 170.5 127C170.5 141.214 170.5 155.471 170.5 170C170.5 174.418 166.921 178 162.503 178C122.983 178 48.3004 178 7.99691 178C3.57863 178 0 174.418 0 170C0 116.515 0 62.9635 0 8.0012Z" fill="#EEB406"/>
</svg>
