<svg width="21" height="21" viewBox="0 0 21 21" fill="none" xmlns="http://www.w3.org/2000/svg">
<g id="Frame">
<path id="Vector" d="M16.1441 13.6659L14.9656 12.4874L16.1441 11.3089C17.7712 9.68174 17.7712 7.04354 16.1441 5.41636C14.5169 3.78917 11.8787 3.78917 10.2515 5.41636L9.07298 6.59487L7.89447 5.41636L9.07298 4.23784C11.3511 1.95978 15.0445 1.95978 17.3226 4.23784C19.6007 6.5159 19.6007 10.2093 17.3226 12.4874L16.1441 13.6659ZM13.787 16.023L12.6085 17.2015C10.3305 19.4795 6.63699 19.4795 4.35893 17.2015C2.08088 14.9234 2.08088 11.2299 4.35893 8.95189L5.53744 7.77337L6.71596 8.95189L5.53744 10.1304C3.91026 11.7576 3.91026 14.3957 5.53744 16.023C7.16463 17.6502 9.80282 17.6502 11.43 16.023L12.6085 14.8444L13.787 16.023ZM13.1977 7.18412L14.3763 8.36263L8.48373 14.2552L7.30521 13.0767L13.1977 7.18412Z" fill="white"/>
</g>
</svg>
