<svg width="16" height="17" viewBox="0 0 16 17" fill="none" xmlns="http://www.w3.org/2000/svg">
<path d="M7.99967 15.1667C4.31777 15.1667 1.33301 12.1819 1.33301 8.50004C1.33301 4.81814 4.31777 1.83337 7.99967 1.83337C11.6815 1.83337 14.6663 4.81814 14.6663 8.50004C14.6663 12.1819 11.6815 15.1667 7.99967 15.1667ZM6.47302 13.6116C5.83129 12.2506 5.43789 10.7495 5.35121 9.16671H2.7076C2.97167 11.2844 4.47727 13.0165 6.47302 13.6116ZM6.68681 9.16671C6.78707 10.7926 7.25154 12.3198 7.99967 13.668C8.74781 12.3198 9.21227 10.7926 9.31254 9.16671H6.68681ZM13.2917 9.16671H10.6481C10.5615 10.7495 10.1681 12.2506 9.52634 13.6116C11.5221 13.0165 13.0277 11.2844 13.2917 9.16671ZM2.7076 7.83337H5.35121C5.43789 6.25055 5.83129 4.74942 6.47302 3.38841C4.47727 3.98359 2.97167 5.71571 2.7076 7.83337ZM6.68681 7.83337H9.31254C9.21227 6.20752 8.74781 4.68021 7.99967 3.33203C7.25154 4.68021 6.78707 6.20752 6.68681 7.83337ZM9.52634 3.38841C10.1681 4.74942 10.5615 6.25055 10.6481 7.83337H13.2917C13.0277 5.71571 11.5221 3.98359 9.52634 3.38841Z" fill="#E1AA05"/>
</svg>
