<svg width="168" height="41" viewBox="0 0 168 41" fill="none" xmlns="http://www.w3.org/2000/svg">
<path d="M49.2773 28.9524H61.2293V25.3524H53.5253V11.7924H49.2773V28.9524Z" fill="white"/>
<path d="M68.3108 26.5524C66.6068 26.5524 65.7188 25.0644 65.7188 22.8324C65.7188 20.6004 66.6068 19.0884 68.3108 19.0884C70.0148 19.0884 70.9268 20.6004 70.9268 22.8324C70.9268 25.0644 70.0148 26.5524 68.3108 26.5524ZM68.3348 29.3364C72.2948 29.3364 74.8868 26.5284 74.8868 22.8324C74.8868 19.1364 72.2948 16.3284 68.3348 16.3284C64.3988 16.3284 61.7588 19.1364 61.7588 22.8324C61.7588 26.5284 64.3988 29.3364 68.3348 29.3364Z" fill="white"/>
<path d="M81.7415 33.2004C83.5655 33.2004 85.1735 32.7924 86.2535 31.8324C87.2375 30.9444 87.8855 29.6004 87.8855 27.7524V16.6644H84.1415V17.9844H84.0935C83.3735 16.9524 82.2695 16.3044 80.6375 16.3044C77.5895 16.3044 75.4775 18.8484 75.4775 22.4484C75.4775 26.2164 78.0455 28.2804 80.8055 28.2804C82.2935 28.2804 83.2295 27.6804 83.9495 26.8644H84.0455V28.0884C84.0455 29.5764 83.3495 30.4404 81.6935 30.4404C80.3975 30.4404 79.7495 29.8884 79.5335 29.2404H75.7415C76.1255 31.8084 78.3575 33.2004 81.7415 33.2004ZM81.7175 25.3764C80.2535 25.3764 79.2935 24.1764 79.2935 22.3284C79.2935 20.4564 80.2535 19.2564 81.7175 19.2564C83.3495 19.2564 84.2135 20.6484 84.2135 22.3044C84.2135 24.0324 83.4215 25.3764 81.7175 25.3764Z" fill="white"/>
<path d="M95.5833 26.5524C93.8793 26.5524 92.9912 25.0644 92.9912 22.8324C92.9912 20.6004 93.8793 19.0884 95.5833 19.0884C97.2873 19.0884 98.1992 20.6004 98.1992 22.8324C98.1992 25.0644 97.2873 26.5524 95.5833 26.5524ZM95.6072 29.3364C99.5672 29.3364 102.159 26.5284 102.159 22.8324C102.159 19.1364 99.5672 16.3284 95.6072 16.3284C91.6712 16.3284 89.0312 19.1364 89.0312 22.8324C89.0312 26.5284 91.6712 29.3364 95.6072 29.3364Z" fill="white"/>
<path d="M103.302 28.9524H107.214V16.6644H103.302V28.9524ZM103.302 14.9604H107.214V11.7924H103.302V14.9604Z" fill="white"/>
<path d="M108.911 33.0084H112.823V27.6804H112.871C113.639 28.7124 114.767 29.3364 116.351 29.3364C119.567 29.3364 121.703 26.7924 121.703 22.8084C121.703 19.1124 119.711 16.3044 116.447 16.3044C114.767 16.3044 113.567 17.0484 112.727 18.1524H112.655V16.6644H108.911V33.0084ZM115.343 26.3124C113.663 26.3124 112.703 24.9444 112.703 22.9524C112.703 20.9604 113.567 19.4484 115.271 19.4484C116.951 19.4484 117.743 20.8404 117.743 22.9524C117.743 25.0404 116.831 26.3124 115.343 26.3124Z" fill="white"/>
<path d="M128.072 29.3364C131.288 29.3364 133.664 27.9444 133.664 25.2564C133.664 22.1124 131.12 21.5604 128.96 21.2004C127.4 20.9124 126.008 20.7924 126.008 19.9284C126.008 19.1604 126.752 18.8004 127.712 18.8004C128.792 18.8004 129.536 19.1364 129.68 20.2404H133.28C133.088 17.8164 131.216 16.3044 127.736 16.3044C124.832 16.3044 122.432 17.6484 122.432 20.2404C122.432 23.1204 124.712 23.6964 126.848 24.0564C128.48 24.3444 129.968 24.4644 129.968 25.5684C129.968 26.3604 129.224 26.7924 128.048 26.7924C126.752 26.7924 125.936 26.1924 125.792 24.9684H122.096C122.216 27.6804 124.472 29.3364 128.072 29.3364Z" fill="white"/>
<path d="M138.978 29.3124C140.682 29.3124 141.762 28.6404 142.65 27.4404H142.722V28.9524H146.466V16.6644H142.554V23.5284C142.554 24.9924 141.738 26.0004 140.394 26.0004C139.146 26.0004 138.546 25.2564 138.546 23.9124V16.6644H134.658V24.7284C134.658 27.4644 136.146 29.3124 138.978 29.3124Z" fill="white"/>
<path d="M148.168 28.9524H152.08V22.0644C152.08 20.6004 152.8 19.5684 154.024 19.5684C155.2 19.5684 155.752 20.3364 155.752 21.6564V28.9524H159.664V22.0644C159.664 20.6004 160.36 19.5684 161.608 19.5684C162.784 19.5684 163.336 20.3364 163.336 21.6564V28.9524H167.248V20.9604C167.248 18.2004 165.856 16.3044 163.072 16.3044C161.488 16.3044 160.168 16.9764 159.208 18.4644H159.16C158.536 17.1444 157.312 16.3044 155.704 16.3044C153.928 16.3044 152.752 17.1444 151.984 18.4164H151.912V16.6644H148.168V28.9524Z" fill="white"/>
<path d="M25.0925 2.05386L21.1595 1L17.8451 13.3696L14.8528 2.20224L10.9197 3.2561L14.1527 15.3216L6.10008 7.26898L3.22089 10.1482L12.0536 18.981L1.05386 16.0336L0 19.9666L12.0186 23.187C11.881 22.5935 11.8082 21.9751 11.8082 21.3397C11.8082 16.8421 15.4542 13.1961 19.9518 13.1961C24.4494 13.1961 28.0954 16.8421 28.0954 21.3397C28.0954 21.971 28.0235 22.5856 27.8876 23.1756L38.8103 26.1023L39.8641 22.1693L27.7977 18.9361L38.7982 15.9885L37.7443 12.0555L25.6784 15.2885L33.731 7.23592L30.8518 4.35673L22.1416 13.067L25.0925 2.05386Z" fill="#F97316"/>
<path d="M28.1939 23.1444C27.8567 24.57 27.1448 25.8507 26.168 26.8768L34.081 34.7899L36.9602 31.9107L28.1939 23.1444Z" fill="#F97316"/>
<path d="M26.0881 26.9596C25.0995 27.9693 23.8502 28.7228 22.4492 29.1111L25.3286 39.8571L29.2616 38.8032L26.0881 26.9596Z" fill="#F97316"/>
<path d="M22.3023 29.1504C21.6523 29.3175 20.971 29.4063 20.2689 29.4063C19.5167 29.4063 18.7883 29.3043 18.0968 29.1134L15.2148 39.8692L19.1478 40.923L22.3023 29.1504Z" fill="#F97316"/>
<path d="M17.9578 29.0737C16.5782 28.6661 15.3511 27.903 14.3827 26.8904L6.4502 34.8229L9.32939 37.7021L17.9578 29.0737Z" fill="#F97316"/>
<path d="M14.3172 26.8204C13.3654 25.8014 12.6721 24.5378 12.3421 23.1342L1.38379 26.0705L2.43764 30.0035L14.3172 26.8204Z" fill="#F97316"/>
</svg>
