<svg width="48" height="48" viewBox="0 0 48 48" fill="none" xmlns="http://www.w3.org/2000/svg">
<g id="ri:file-video-fill">
<path id="Vector" d="M32 4L42 14V42.016C41.9995 42.5424 41.79 43.047 41.4176 43.419C41.0452 43.791 40.5404 44 40.014 44H7.986C7.46076 43.9963 6.95803 43.7862 6.58644 43.415C6.21484 43.0438 6.00419 42.5412 6 42.016V5.984C6 4.888 6.89 4 7.986 4H32ZM30 23.334L20.244 16.828C20.1235 16.7476 19.9834 16.7014 19.8387 16.6944C19.694 16.6874 19.5501 16.7198 19.4224 16.7882C19.2947 16.8566 19.1879 16.9583 19.1135 17.0826C19.0392 17.207 18.9999 17.3491 19 17.494V30.504C18.9999 30.6489 19.0392 30.791 19.1135 30.9153C19.1879 31.0397 19.2947 31.1414 19.4224 31.2098C19.5501 31.2782 19.694 31.3106 19.8387 31.3036C19.9834 31.2966 20.1235 31.2504 20.244 31.17L30 24.666C30.1093 24.5927 30.1989 24.4935 30.2608 24.3774C30.3228 24.2612 30.3552 24.1316 30.3552 24C30.3552 23.8684 30.3228 23.7388 30.2608 23.6226C30.1989 23.5065 30.1093 23.4073 30 23.334Z" fill="#E1AA05"/>
</g>
</svg>
