<svg width="14" height="14" viewBox="0 0 14 14" fill="none" xmlns="http://www.w3.org/2000/svg">
<path d="M6.99967 1.66732C5.27267 1.66732 3.73705 2.48767 2.7615 3.76248L4.33301 5.33398H0.333008V1.33398L1.81209 2.81307C3.03341 1.30198 4.90339 0.333984 6.99967 0.333984C10.6815 0.333984 13.6663 3.31875 13.6663 7.00065H12.333C12.333 4.05513 9.94521 1.66732 6.99967 1.66732ZM1.66634 7.00065C1.66634 9.94618 4.05415 12.334 6.99967 12.334C8.72667 12.334 10.2623 11.5136 11.2379 10.2389L9.66634 8.66732H13.6663V12.6673L12.1873 11.1883C10.9659 12.6993 9.09594 13.6673 6.99967 13.6673C3.31777 13.6673 0.333008 10.6825 0.333008 7.00065H1.66634Z" fill="white"/>
</svg>
