<svg width="98" height="117" viewBox="0 0 98 117" fill="none" xmlns="http://www.w3.org/2000/svg">
<path d="M50.4814 0.795751C51.1119 1.09661 51.725 1.42111 52.3396 1.75337C52.8232 2.00635 53.3086 2.25569 53.7945 2.50444C53.9218 2.56985 54.0491 2.63526 54.1803 2.70266C65.3219 8.38391 77.0542 11.8292 89.3496 13.8356C90.7728 14.068 92.1935 14.3141 93.6143 14.5602C93.8323 14.5973 94.0504 14.6345 94.2751 14.6728C95.5002 14.8824 96.72 15.1106 97.9372 15.3621C98.2602 31.821 97.6255 49.1262 88.9999 74.4629C88.9202 74.6519 88.8405 74.8409 88.7584 75.0356C87.4537 78.1076 85.8558 80.9489 84.1148 83.7874C83.7951 84.3106 83.4805 84.8363 83.1688 85.3643C82.0224 87.2967 80.7615 89.1211 79.4239 90.9257C79.0801 91.3913 78.7403 91.8598 78.4011 92.3289C76.8003 94.5363 75.1801 96.7312 73.2071 98.6249C72.8691 98.9632 72.559 99.315 72.2483 99.6785C71.5317 100.503 70.7803 101.285 70.0079 102.057C69.872 102.193 69.7361 102.329 69.596 102.469C68.6922 103.364 67.7674 104.185 66.7679 104.972C66.2239 105.409 65.7123 105.873 65.1992 106.346C64.3505 107.126 63.482 107.868 62.5831 108.589C62.157 108.935 61.7396 109.285 61.3248 109.644C59.1806 111.474 56.8478 112.901 54.416 114.317C54.1443 114.478 53.8725 114.639 53.6009 114.8C49.8734 116.994 49.8734 116.994 48.1987 116.844C47.6667 116.655 47.1952 116.461 46.693 116.212C46.5519 116.144 46.4109 116.076 46.2656 116.006C44.6364 115.196 43.1193 114.209 41.6 113.213C41.1112 112.896 40.6111 112.599 40.1114 112.3C37.9111 110.897 35.9653 109.058 33.9945 107.355C33.3228 106.776 32.6419 106.21 31.9511 105.654C30.0306 104.09 28.2526 102.366 26.5033 100.615C26.2065 100.318 25.9081 100.024 25.6097 99.7286C24.3734 98.4986 23.2461 97.2182 22.1637 95.848C21.9692 95.6108 21.7743 95.3741 21.5786 95.1379C18.4389 91.299 15.7164 87.1078 13.2263 82.8225C13.0797 82.5704 13.0797 82.5704 12.9301 82.3133C8.14142 74.0487 5.15421 65.0571 2.92891 55.7995C2.89481 55.6591 2.86071 55.5188 2.82557 55.3743C0.771466 46.8922 0.648099 38.0601 0.237726 29.3791C0.209757 28.7957 0.180161 28.2123 0.150346 27.629C0.0172488 24.936 -0.00903542 22.25 0.0023985 19.5541C0.00337707 19.1436 0.00426284 18.7331 0.00505482 18.3227C0.00715465 17.3358 0.0104846 16.349 0.0145417 15.3621C2.26264 14.9455 4.51228 14.542 6.76767 14.1668C20.2355 11.925 32.4024 8.23168 44.6969 2.31686C44.8363 2.25013 44.9756 2.18341 45.1192 2.11466C45.8685 1.75379 46.5995 1.37109 47.329 0.971176C48.4458 0.422754 49.3117 0.33833 50.4814 0.795751Z" fill="url(#paint0_linear_505_1239)"/>
<path d="M50.6152 3.58133C51.2174 3.86772 51.8031 4.1766 52.39 4.49288C52.8519 4.73368 53.3156 4.97103 53.7796 5.20781C53.9012 5.27007 54.0228 5.33234 54.1481 5.39649C64.7895 10.8044 75.995 14.084 87.7384 15.9938C89.0976 16.215 90.4545 16.4493 91.8116 16.6835C92.0198 16.7189 92.2281 16.7543 92.4427 16.7907C93.6129 16.9903 94.7778 17.2075 95.9405 17.4469C96.2489 33.114 95.6427 49.5866 87.4043 73.7043C87.3282 73.8842 87.2521 74.0642 87.1737 74.2495C85.9276 77.1737 84.4014 79.8784 82.7386 82.5803C82.4332 83.0783 82.1328 83.5787 81.8351 84.0813C80.7401 85.9207 79.5359 87.6574 78.2583 89.3751C77.9299 89.8184 77.6054 90.2642 77.2815 90.7108C75.7525 92.812 74.205 94.9013 72.3207 96.704C71.9978 97.0259 71.7016 97.3608 71.4049 97.7068C70.7205 98.4915 70.0028 99.236 69.2651 99.9709C69.1353 100.1 69.0054 100.23 68.8717 100.363C68.0085 101.215 67.1252 101.997 66.1706 102.745C65.651 103.162 65.1624 103.603 64.6723 104.054C63.8617 104.796 63.0322 105.503 62.1736 106.189C61.7667 106.518 61.368 106.851 60.9718 107.192C58.9239 108.935 56.6959 110.293 54.3733 111.641C54.1137 111.794 53.8542 111.947 53.5948 112.101C50.0346 114.189 50.0346 114.189 48.4351 114.047C47.9269 113.867 47.4767 113.682 46.9969 113.445C46.8622 113.381 46.7275 113.316 46.5887 113.249C45.0327 112.478 43.5837 111.539 42.1327 110.59C41.6657 110.288 41.1881 110.006 40.7108 109.721C38.6094 108.386 36.7509 106.635 34.8686 105.014C34.2271 104.463 33.5767 103.925 32.917 103.394C31.0827 101.906 29.3845 100.265 27.7137 98.5983C27.4302 98.316 27.1453 98.0353 26.8603 97.7545C25.6795 96.5837 24.6027 95.3649 23.569 94.0606C23.3833 93.8349 23.197 93.6095 23.0101 93.3847C20.0114 89.7305 17.4112 85.7409 15.0329 81.6618C14.8928 81.4218 14.8928 81.4218 14.7499 81.1771C10.1763 73.3101 7.32318 64.7511 5.1978 55.9388C5.16523 55.8052 5.13266 55.6717 5.0991 55.5341C3.13722 47.4601 3.01939 39.0529 2.62744 30.7896C2.60073 30.2342 2.57246 29.6789 2.54399 29.1236C2.41686 26.5601 2.39176 24.0034 2.40268 21.4372C2.40362 21.0465 2.40446 20.6558 2.40522 20.265C2.40722 19.3256 2.4104 18.3863 2.41428 17.4469C4.56145 17.0503 6.71008 16.6663 8.86421 16.3091C21.7274 14.1752 33.348 10.6595 45.0905 5.02926C45.2236 4.96574 45.3567 4.90222 45.4938 4.83678C46.2095 4.49327 46.9076 4.12899 47.6044 3.74831C48.6711 3.22628 49.4981 3.14591 50.6152 3.58133ZM47.1593 11.5366C38.0892 16.5238 28.19 19.8012 18.002 21.5182C17.4607 21.6106 16.9195 21.7036 16.3783 21.7965C15.3794 21.9678 14.3805 22.1384 13.3814 22.3079C12.7565 22.4141 12.1318 22.5212 11.5071 22.6285C11.2974 22.6645 11.0877 22.7004 10.8717 22.7375C10.596 22.7859 10.596 22.7859 10.3147 22.8352C10.1577 22.8626 10.0007 22.89 9.83894 22.9183C9.45515 22.9848 9.45515 22.9848 9.09472 23.1837C8.94474 30.2994 9.36137 37.3695 9.83699 44.4653C9.84995 44.6615 9.8629 44.8578 9.87625 45.0601C10.8824 60.2519 16.1917 75.229 25.4247 87.3985C25.5859 87.6142 25.7471 87.8298 25.9082 88.0455C26.3556 88.64 26.8155 89.2232 27.2804 89.8043C27.4256 89.9873 27.5708 90.1702 27.7204 90.3587C29.0222 91.9535 30.4782 93.4027 31.9312 94.8587C32.0341 94.9623 32.137 95.0659 32.243 95.1726C33.4196 96.3546 34.6087 97.4754 35.9205 98.509C36.3972 98.8913 36.8496 99.2933 37.301 99.7049C39.8784 102.04 42.654 103.968 45.6516 105.719C45.7841 105.797 45.9166 105.874 46.0531 105.954C46.4236 106.169 46.7965 106.379 47.1709 106.587C47.384 106.706 47.5972 106.825 47.8168 106.947C48.7579 107.331 49.4099 107.32 50.3604 106.967C50.5863 106.855 50.8104 106.74 51.033 106.621C51.1574 106.557 51.2817 106.493 51.4098 106.426C54.2749 104.912 56.9793 103.268 59.3836 101.093C59.7299 100.809 60.0778 100.528 60.4274 100.248C61.3108 99.5317 62.1538 98.7782 62.992 98.0097C63.3969 97.6399 63.8057 97.2766 64.22 96.9174C64.3376 96.8149 64.4553 96.7123 64.5766 96.6066C64.8446 96.3735 65.1134 96.1413 65.3827 95.9097C66.4326 94.9911 67.3901 94.0133 68.3206 92.977C68.6668 92.5914 69.0194 92.214 69.3803 91.8421C70.9856 90.1776 72.3349 88.3555 73.6723 86.4733C73.763 86.3466 73.8536 86.2199 73.947 86.0893C75.4391 83.9975 76.8073 81.8301 78.1259 79.6261C78.2865 79.358 78.2865 79.358 78.4503 79.0845C83.673 70.2822 86.8487 59.9728 88.1466 49.8319C88.175 49.6243 88.2035 49.4168 88.2328 49.2029C88.5534 46.7686 88.672 44.3252 88.7961 41.8745C88.8198 41.4177 88.8436 40.961 88.8674 40.5043C89.0237 37.4687 89.166 34.4325 89.2948 31.3956C89.3027 31.2142 89.3107 31.0327 89.3188 30.8458C89.4293 28.2905 89.4654 25.7413 89.4456 23.1837C86.9062 22.5861 84.3665 22.1177 81.7898 21.7153C78.3589 21.1786 74.9929 20.5482 71.6311 19.6676C71.443 19.6191 71.2549 19.5705 71.061 19.5206C65.519 18.0701 60.2828 15.8092 55.1155 13.3756C54.9976 13.3202 54.8797 13.2648 54.7581 13.2077C53.6132 12.6698 52.47 12.1282 51.3302 11.5793C51.1778 11.5058 51.0253 11.4324 50.8682 11.3568C50.4763 11.1549 50.4763 11.1549 49.9196 10.7848C48.7678 10.6486 48.1184 10.9805 47.1593 11.5366Z" fill="#FF8A8A"/>
<path d="M50.56 9.20525C51.0434 9.44603 51.5195 9.69909 51.9959 9.9542C61.4354 14.8872 71.3202 18.4389 81.7995 20.0987C83.1943 20.3198 84.5863 20.5573 85.9777 20.7997C86.3757 20.8687 86.774 20.9363 87.1723 21.0038C87.4152 21.0459 87.6581 21.0879 87.9009 21.1301C88.1123 21.1663 88.3237 21.2026 88.5415 21.2399C89.0537 21.3515 89.4971 21.5024 89.9745 21.7195C90.1093 29.1981 89.7072 36.6864 89.1781 44.1439C89.168 44.2877 89.1579 44.4314 89.1475 44.5796C89.0144 46.4422 88.83 48.2939 88.578 50.1439C88.5611 50.2719 88.5442 50.3999 88.5268 50.5318C88.2012 52.9644 87.6719 55.3293 87.0833 57.7081C87.0141 57.9895 87.0141 57.9895 86.9436 58.2767C85.0524 65.9435 82.3349 73.2499 78.2787 79.9984C78.19 80.1473 78.1013 80.2963 78.0099 80.4497C76.8215 82.4405 75.5505 84.3532 74.1936 86.2273C73.9207 86.6045 73.6499 86.9832 73.3793 87.3622C73.2051 87.6041 73.0308 87.846 72.8563 88.0877C72.7827 88.1908 72.7092 88.2938 72.6333 88.4C71.1132 90.4856 69.3852 92.3837 67.5842 94.215C67.2686 94.5364 66.9548 94.8596 66.6412 95.183C65.5821 96.2689 64.5121 97.2977 63.3336 98.2482C62.8978 98.6063 62.4871 98.9841 62.077 99.3726C61.1149 100.27 60.0942 101.083 59.0636 101.895C58.8205 102.091 58.5808 102.291 58.3434 102.494C57.1918 103.471 55.9704 104.268 54.6798 105.037C54.5764 105.099 54.4731 105.161 54.3666 105.225C50.2043 107.722 50.2043 107.722 49.1558 107.695C48.4007 107.468 47.7438 107.119 47.0535 106.736C46.8356 106.616 46.8356 106.616 46.6134 106.494C42.6753 104.31 39.2594 101.52 35.9005 98.5066C35.3032 97.9718 34.6961 97.4591 34.0703 96.9592C33.1079 96.1621 32.2397 95.2735 31.3646 94.3782C31.2241 94.2345 31.0836 94.0908 30.9389 93.9427C30.1008 93.0765 29.3032 92.1859 28.5279 91.2609C28.3622 91.0693 28.1963 90.878 28.0301 90.6869C24.6563 86.7669 21.8765 82.2695 19.3443 77.7472C19.129 77.3657 18.9088 76.9882 18.6855 76.6116C14.6013 69.6246 12.4711 61.1893 10.8506 53.2716C10.7654 52.8563 10.6769 52.4418 10.5852 52.028C10.1668 50.0643 10.0008 48.1002 9.8495 46.0992C9.83506 45.9142 9.82062 45.7291 9.80574 45.5385C9.19198 37.6299 8.77407 29.6554 8.80211 21.7195C9.63975 21.3114 10.5025 21.2003 11.4103 21.0582C11.7649 21.0007 12.1194 20.9432 12.4739 20.8857C12.6598 20.8559 12.8457 20.8261 13.0372 20.7954C24.8737 18.8916 35.9911 15.7667 46.6758 10.0876C46.8364 10.0026 46.9971 9.91765 47.1626 9.83012C47.4573 9.6728 47.7507 9.51282 48.0423 9.34959C49.0047 8.83235 49.5334 8.73091 50.56 9.20525ZM47.4027 12.4346C38.8704 17.2524 29.5582 20.4184 19.9742 22.077C19.465 22.1663 18.9559 22.2561 18.4468 22.3459C17.5072 22.5114 16.5675 22.6762 15.6276 22.8399C15.0398 22.9425 14.4521 23.046 13.8645 23.1496C13.6672 23.1844 13.47 23.2191 13.2667 23.2549C13.0074 23.3017 13.0074 23.3017 12.7428 23.3494C12.5951 23.3758 12.4474 23.4023 12.2952 23.4296C11.9342 23.4938 11.9342 23.4938 11.5951 23.686C11.4541 30.5599 11.846 37.3898 12.2934 44.2445C12.3056 44.4341 12.3178 44.6237 12.3303 44.8191C13.2768 59.4947 18.2713 73.963 26.9568 85.719C27.1085 85.9273 27.2601 86.1357 27.4116 86.344C27.8325 86.9184 28.2652 87.4817 28.7024 88.0431C28.839 88.2198 28.9756 88.3966 29.1164 88.5787C30.341 90.1192 31.7106 91.5192 33.0775 92.9257C33.1743 93.0258 33.2711 93.1259 33.3708 93.229C34.4777 94.3708 35.5963 95.4535 36.8302 96.452C37.2787 96.8213 37.7043 97.2096 38.1289 97.6072C40.5535 99.8627 43.1645 101.725 45.9843 103.417C46.109 103.492 46.2336 103.567 46.362 103.644C46.7106 103.852 47.0613 104.054 47.4136 104.255C47.6141 104.37 47.8146 104.485 48.0211 104.604C48.9065 104.975 49.5198 104.964 50.4139 104.623C50.6264 104.514 50.8373 104.403 51.0467 104.289C51.1637 104.227 51.2806 104.164 51.4011 104.1C54.0963 102.638 56.6403 101.049 58.9021 98.948C59.2278 98.6742 59.5551 98.4022 59.884 98.1324C60.715 97.4399 61.508 96.712 62.2965 95.9697C62.6774 95.6125 63.062 95.2615 63.4517 94.9145C63.5624 94.8154 63.6731 94.7163 63.7872 94.6142C64.0393 94.3891 64.2921 94.1648 64.5454 93.9411C65.5331 93.0537 66.4339 92.109 67.3091 91.108C67.6349 90.7355 67.9665 90.3709 68.3061 90.0116C69.8162 88.4036 71.0854 86.6435 72.3435 84.8252C72.4288 84.7028 72.5141 84.5804 72.602 84.4543C74.0056 82.4336 75.2926 80.3398 76.5331 78.2107C76.6841 77.9517 76.6841 77.9517 76.8382 77.6875C81.7512 69.1842 84.7386 59.2251 85.9596 49.4288C85.9863 49.2283 86.0131 49.0278 86.0406 48.8212C86.3423 46.4695 86.4538 44.1092 86.5705 41.7417C86.5929 41.3005 86.6152 40.8593 86.6376 40.4181C86.7846 37.4856 86.9185 34.5526 87.0397 31.6189C87.0471 31.4436 87.0546 31.2683 87.0623 31.0878C87.1662 28.6193 87.2002 26.1567 87.1815 23.686C84.7928 23.1087 82.4036 22.6562 79.9797 22.2675C76.7522 21.749 73.5858 21.14 70.4233 20.2893C70.2464 20.2425 70.0694 20.1956 69.8871 20.1473C64.6737 18.7461 59.748 16.5621 54.8871 14.2112C54.7762 14.1576 54.6652 14.1041 54.5509 14.049C53.4738 13.5293 52.3984 13.0061 51.3263 12.4758C51.1828 12.4049 51.0394 12.334 50.8916 12.2609C50.523 12.0659 50.523 12.0659 49.9993 11.7084C48.9157 11.5768 48.3048 11.8974 47.4027 12.4346Z" fill="url(#paint1_linear_505_1239)"/>
<path d="M58.5362 33.7666L49.1836 0.0834961L49.5581 1.0977L63.0903 33.8923C63.4285 34.7118 63.4115 35.6349 63.0434 36.4414L50.7738 63.3268C50.3404 64.2767 50.3975 65.3783 50.927 66.2782L59.9064 81.5391C60.4346 82.4369 60.4928 83.5355 60.0625 84.484L45.571 116.425C45.5677 116.432 45.5653 116.438 45.5634 116.445C45.5402 116.521 45.6122 116.526 45.5634 116.445C45.5631 116.444 45.5628 116.444 45.5625 116.443C45.4674 116.287 55.8929 84.0783 55.9767 82.6843C56.0535 81.4065 50.0433 71.8276 46.2756 66.0329C45.6757 65.1104 45.5873 63.9481 46.0441 62.947L58.364 35.9513C58.6768 35.266 58.7378 34.4924 58.5362 33.7666Z" fill="#0B0B0F"/>
<defs>
<linearGradient id="paint0_linear_505_1239" x1="4" y1="-89.3" x2="84" y2="102.7" gradientUnits="userSpaceOnUse">
<stop stop-color="#FFA2A2"/>
<stop offset="1" stop-color="#570000"/>
</linearGradient>
<linearGradient id="paint1_linear_505_1239" x1="49.4008" y1="8.8999" x2="49.4008" y2="107.7" gradientUnits="userSpaceOnUse">
<stop stop-color="#FF0000"/>
<stop offset="1" stop-color="#320202"/>
</linearGradient>
</defs>
</svg>
