<svg width="98" height="98" viewBox="0 0 98 98" fill="none" xmlns="http://www.w3.org/2000/svg">
<path d="M47.8598 0.412191C54.9909 0.247417 62.0929 1.74494 68.6174 4.58544C68.9177 4.71442 69.2181 4.84341 69.5275 4.9763C70.4807 5.39557 71.4207 5.8363 72.3602 6.2854C72.668 6.42126 72.9759 6.55713 73.293 6.69711C74.6756 7.39046 74.6756 7.39046 75.1565 8.0284C74.7663 9.08214 73.9234 9.71691 73.0915 10.4385C72.7312 10.785 72.3709 11.1315 72.0106 11.4781C71.6553 11.8001 71.2986 12.1207 70.9405 12.4397C69.5853 13.654 69.5853 13.654 68.2732 14.9143C66.8376 14.7856 65.6365 14.1954 64.3368 13.6017C55.1726 9.57073 44.6082 9.28031 35.2332 12.8485C24.9514 17.2008 17.3012 24.5345 13.0466 34.8929C9.48705 43.9207 9.36934 54.513 13.1723 63.5041C17.7085 73.5088 24.8623 80.9155 35.076 85.0552C45.1639 88.7841 55.9915 88.3547 65.7565 83.8811C75.0468 79.4203 82.0054 71.4704 85.4616 61.8C88.0333 54.2416 88.3338 46.5204 86.272 38.7972C86.0067 37.5686 85.9885 36.9171 86.631 35.8115C87.354 34.8855 88.1332 34.0315 88.9232 33.162C89.2564 32.7439 89.5866 32.3232 89.914 31.9005C90.2505 31.4746 90.5871 31.0487 90.9237 30.6228C91.0846 30.4112 91.2455 30.1996 91.4113 29.9816C91.8768 29.4097 91.8768 29.4097 92.709 28.6862C93.9723 29.9915 94.3913 31.7121 94.9461 33.3987C95.0522 33.7195 95.1583 34.0403 95.2676 34.3708C96.1947 37.266 96.7815 40.1377 97.1832 43.1466C97.228 43.4626 97.2728 43.7786 97.319 44.1042C97.42 44.934 97.4838 45.7548 97.5273 46.5896C97.5546 47.0909 97.5546 47.0909 97.5825 47.6023C97.9413 60.822 92.7411 73.2193 83.7607 82.7407C83.5118 83.0158 83.2629 83.291 83.0065 83.5745C74.5787 92.5333 62.2136 97.0297 50.1346 97.5884C36.9812 97.876 24.7684 92.7376 15.2716 83.7735C14.9965 83.5246 14.7215 83.2756 14.4381 83.0191C6.69146 75.7261 2.20694 65.2673 0.816622 54.8527C0.771813 54.5367 0.727004 54.2207 0.680838 53.8951C0.579843 53.0653 0.515958 52.2445 0.472456 51.4097C0.454266 51.0755 0.436076 50.7413 0.417336 50.397C0.0584927 37.1772 5.25866 24.7799 14.2391 15.2586C14.488 14.9834 14.7369 14.7083 14.9933 14.4248C23.4245 5.46235 35.775 0.956919 47.8598 0.412191Z" fill="white"/>
<path d="M90.988 8.37289C92.3391 9.10068 93.2737 9.82798 94.0855 11.1273C94.271 11.9934 94.271 11.9934 94.3006 12.9348C94.3192 13.2419 94.3378 13.5491 94.357 13.8655C93.9306 15.5128 92.8484 16.4733 91.6763 17.6689C91.4108 17.9397 91.1454 18.2106 90.8718 18.4896C89.7011 19.6684 88.5172 20.8334 87.3339 21.9995C85.6066 23.7117 83.9602 25.4576 82.3838 27.3092C82.0322 27.7114 81.6799 28.113 81.3271 28.5142C76.8262 33.6629 72.615 38.9748 68.6172 44.524C68.4347 44.7767 68.2523 45.0294 68.0643 45.2897C63.7066 51.3422 59.6894 57.5924 56.1344 64.1516C55.9394 64.5074 55.7443 64.8633 55.5434 65.23C55.1617 65.9282 54.7847 66.6289 54.4131 67.3324C53.2432 69.466 52.129 71.2016 49.6702 71.9336C47.8943 72.3005 46.4167 71.9396 44.8697 71.0348C42.3529 68.7609 40.6049 65.5856 38.7607 62.7717C38.118 61.7956 37.4742 60.8203 36.8302 59.8452C36.5912 59.4828 36.5912 59.4828 36.3474 59.113C34.9094 56.9375 33.434 54.7886 31.9525 52.6425C30.9029 51.1218 29.8695 49.5905 28.8444 48.053C28.6703 47.7938 28.4962 47.5346 28.3168 47.2676C28.1497 47.0173 27.9827 46.767 27.8106 46.5091C27.5926 46.183 27.5926 46.183 27.3702 45.8504C26.3107 44.1489 25.8874 42.7409 26.2847 40.7367C26.9875 39.5744 27.8141 38.5945 29.038 37.9824C29.7855 37.9003 29.7855 37.9003 30.6728 37.8748C30.9621 37.8619 31.2513 37.849 31.5494 37.8358C33.9145 38.2084 35.2496 40.079 36.6312 41.8557C37.025 42.3516 37.4189 42.8474 37.8129 43.3432C38.0125 43.5962 38.2121 43.8493 38.4177 44.1101C39.5471 45.5345 40.7011 46.9392 41.8562 48.3428C42.7954 49.4908 43.7011 50.6507 44.5672 51.8551C44.7379 52.0878 44.9087 52.3205 45.0846 52.5603C45.4101 53.0067 45.7287 53.4582 46.0395 53.915C46.486 54.5675 46.486 54.5675 47.2788 55.1972C48.0466 54.6237 48.0466 54.6237 48.6555 53.4757C48.972 53.0138 49.2908 52.5535 49.6114 52.0945C49.9743 51.5581 50.3368 51.0214 50.699 50.4846C54.135 45.4353 57.682 40.5286 61.5824 35.827C62.2774 34.9869 62.9621 34.1386 63.6483 33.2913C68.826 26.9807 68.826 26.9807 71.6353 24.2993C72.2644 23.6622 72.8394 23.0174 73.4194 22.3371C75.0776 20.4257 76.8746 18.6529 78.6658 16.8676C79.2636 16.2714 79.8595 15.6734 80.4553 15.0752C87.5765 7.9463 87.5765 7.9463 90.988 8.37289Z" fill="white"/>
</svg>
