<svg width="98" height="98" viewBox="0 0 98 98" fill="none" xmlns="http://www.w3.org/2000/svg">
<path d="M3.75293 66.8247C3.9711 66.8236 4.18928 66.8225 4.41406 66.8213C5.13493 66.8185 5.85556 66.8204 6.57643 66.8226C7.07747 66.8221 7.57851 66.8215 8.07955 66.8207C9.12952 66.8198 10.1794 66.8211 11.2294 66.8241C12.5756 66.8277 13.9216 66.8256 15.2677 66.8218C16.3023 66.8195 17.3369 66.8203 18.3715 66.8219C18.8678 66.8223 19.3642 66.8218 19.8606 66.8203C20.5543 66.8187 21.2476 66.8212 21.9412 66.8247C22.336 66.8252 22.7308 66.8257 23.1375 66.8263C24.1069 66.9072 24.1069 66.9072 25.1153 67.5448C25.1153 72.3842 25.1153 77.2236 25.1153 82.2096C40.8657 82.2096 56.616 82.2096 72.8437 82.2096C72.8437 77.3702 72.8437 72.5308 72.8437 67.5448C74.0628 66.774 74.3515 66.8269 76.0177 66.8247C76.345 66.8231 76.345 66.8231 76.6789 66.8213C77.3997 66.8185 78.1204 66.8204 78.8412 66.8226C79.3423 66.8221 79.8433 66.8215 80.3443 66.8207C81.3943 66.8198 82.4442 66.8211 83.4942 66.8241C84.8404 66.8277 86.1864 66.8256 87.5325 66.8218C88.5671 66.8195 89.6017 66.8203 90.6363 66.8219C91.1326 66.8223 91.629 66.8218 92.1254 66.8203C92.8191 66.8187 93.5124 66.8212 94.206 66.8247C94.6008 66.8252 94.9956 66.8257 95.4023 66.8263C96.3717 66.9072 96.3717 66.9072 96.9282 67.157C97.5551 67.695 97.5088 68.0654 97.5126 68.7307C97.5165 68.9774 97.5203 69.2241 97.5242 69.4784C97.5232 69.7493 97.5222 70.0203 97.5212 70.2994C97.5237 70.5875 97.5266 70.8755 97.5299 71.1635C97.5373 71.946 97.5383 72.7284 97.5377 73.511C97.5376 74.1638 97.5405 74.8166 97.5433 75.4695C97.5498 77.0093 97.5507 78.549 97.5485 80.0888C97.5462 81.6785 97.5539 83.268 97.5664 84.8576C97.5767 86.2216 97.5805 87.5856 97.5792 88.9496C97.5785 89.7647 97.5804 90.5797 97.5886 91.3947C97.5961 92.1609 97.5955 92.9269 97.5886 93.6932C97.5869 94.109 97.5935 94.5249 97.6004 94.9408C97.5966 95.1875 97.5928 95.4342 97.589 95.6885C97.5892 95.9033 97.5894 96.1182 97.5897 96.3396C97.3801 96.8743 97.3801 96.8743 96.7613 97.2622C95.1615 97.6385 93.6403 97.5996 91.9464 97.5929C91.3712 97.5944 91.3712 97.5944 90.7844 97.5959C89.4968 97.5984 88.2093 97.5964 86.9217 97.5944C85.9997 97.5949 85.0778 97.5964 84.1558 97.5978C81.91 97.6006 79.6643 97.6 77.4184 97.5982C75.5935 97.5967 73.7686 97.5965 71.9437 97.5972C71.5543 97.5974 71.5543 97.5974 71.1569 97.5975C70.6295 97.5977 70.102 97.5979 69.5746 97.5981C64.6281 97.6 59.6817 97.5979 54.7352 97.5944C50.4894 97.5916 46.2437 97.5921 41.9979 97.595C37.0687 97.5984 32.1396 97.5998 27.2104 97.5978C26.6849 97.5976 26.1595 97.5974 25.6341 97.5972C25.3756 97.5971 25.1171 97.597 24.8507 97.5969C23.0275 97.5964 21.2043 97.5973 19.3811 97.5988C17.1599 97.6006 14.9388 97.6001 12.7177 97.5967C11.5841 97.595 10.4506 97.5947 9.31695 97.5965C8.08918 97.5982 6.86157 97.5961 5.63381 97.5929C5.09408 97.595 5.09408 97.595 4.54346 97.5972C4.21516 97.5955 3.88686 97.5938 3.54861 97.5921C3.12343 97.592 3.12343 97.592 2.68967 97.5918C1.73958 97.4927 1.27431 97.2898 0.57887 96.8743C0.41062 96.3396 0.41062 96.3396 0.410407 95.6885C0.407102 95.4417 0.403796 95.195 0.400391 94.9408C0.40364 94.6698 0.40689 94.3989 0.410238 94.1197C0.408966 93.8317 0.407118 93.5436 0.404735 93.2556C0.400036 92.4731 0.403804 91.6907 0.409343 90.9082C0.413993 90.0899 0.411828 89.2715 0.410643 88.4532C0.409734 87.0789 0.414268 85.7046 0.422054 84.3303C0.430999 82.7407 0.431586 81.1511 0.427638 79.5615C0.424017 78.0333 0.426094 76.5051 0.430849 74.9769C0.432787 74.3261 0.432757 73.6753 0.431164 73.0245C0.429561 72.2583 0.432952 71.4922 0.440223 70.726C0.442991 70.3101 0.440799 69.8942 0.438476 69.4784C0.441806 69.2316 0.445135 68.9849 0.448565 68.7307C0.449381 68.5158 0.450198 68.3009 0.45104 68.0796C0.57887 67.5448 0.57887 67.5448 1.0306 67.157C1.90777 66.7634 2.69071 66.8261 3.75293 66.8247Z" fill="white"/>
<path d="M46.0824 13.3821C47.7729 11.7487 50.4057 12.0793 52.1034 13.7054C52.3531 13.9446 52.605 14.1982 52.869 14.4662C53.2326 14.8234 53.2326 14.8234 53.6035 15.1878C54.4017 15.9745 55.1923 16.7683 55.9828 17.5628C56.5359 18.1125 57.0894 18.6618 57.6432 19.2109C58.802 20.3619 59.9571 21.5164 61.1097 22.6735C62.5874 24.1566 64.0733 25.6313 65.5619 27.1036C66.7057 28.2365 67.8454 29.3734 68.9838 30.5116C69.5302 31.057 70.0778 31.6011 70.6266 32.1441C71.3927 32.9035 72.1532 33.6679 72.9125 34.4341C73.254 34.7695 73.254 34.7695 73.6024 35.1116C74.2335 35.7552 74.7171 36.2888 75.1152 36.9581C75.4983 37.6021 75.7321 38.3156 75.4349 39.0034C75.1898 39.5707 74.6498 40.0915 74.0914 40.3561C73.0859 40.8326 72.2092 40.8098 70.894 40.7679C70.4723 40.7644 70.4723 40.7644 70.0421 40.7608C69.148 40.7514 68.2547 40.7305 67.3608 40.7092C66.7531 40.7008 66.1455 40.6931 65.5378 40.6863C64.4792 40.6732 63.4209 40.6548 62.3627 40.6329C61.6608 40.6184 61.0848 41.186 61.091 41.888C61.125 45.8772 61.1502 49.8664 61.1667 53.8558C61.1755 55.9068 61.1874 57.9577 61.2064 60.0087C61.2247 61.9877 61.2347 63.9666 61.2391 65.9457C61.2422 66.701 61.2483 67.4563 61.2573 68.2117C61.2695 69.269 61.2712 70.326 61.2704 71.3834C61.2765 71.6962 61.2825 72.0091 61.2887 72.3314C61.2878 72.4517 61.2865 72.5669 61.2845 72.6777C61.2459 74.8297 59.4382 76.5833 57.2858 76.5911C56.8663 76.5964 56.4468 76.6016 56.0147 76.6071C55.5598 76.6041 55.105 76.6006 54.6501 76.5968C54.181 76.5979 53.7119 76.5995 53.2427 76.6016C52.2614 76.6041 51.2804 76.6005 50.2991 76.5927C49.0425 76.5832 47.7865 76.5887 46.5299 76.5987C45.5619 76.6047 44.594 76.6028 43.6259 76.5985C43.1627 76.5974 42.6994 76.5987 42.2362 76.6026C41.5886 76.6069 40.9411 76.5992 40.2936 76.5911C40.1522 76.5906 40.0108 76.5901 39.8688 76.5896C39.4097 76.5879 38.8884 76.5522 38.4531 76.406C37.6476 76.1355 37.1766 75.3609 36.9508 74.5417C36.6746 73.5396 36.7085 72.5621 36.7267 71.3834C36.7265 71.0506 36.7263 70.7177 36.7261 70.3748C36.7271 69.2768 36.7375 68.179 36.7481 67.081C36.7506 66.3189 36.7525 65.5568 36.7538 64.7947C36.7589 62.7903 36.7722 60.786 36.787 58.7817C36.8008 56.7358 36.8069 54.69 36.8137 52.6441C36.8267 49.0129 36.8468 45.3818 36.8714 41.7508C36.8757 41.1235 36.3607 40.6167 35.7336 40.6312C34.3273 40.6615 32.9212 40.6807 31.5147 40.6965C30.9067 40.7049 30.2986 40.7163 29.6907 40.7308C28.8154 40.7511 27.9405 40.7606 27.065 40.7679C26.7943 40.7766 26.5236 40.7852 26.2447 40.7941C25.1894 40.7946 24.5922 40.7423 23.8554 40.3681C23.307 40.0896 22.7704 39.57 22.525 39.006C22.2254 38.3177 22.4624 37.6049 22.8506 36.9624C23.4346 35.9958 24.206 35.2527 25.0774 34.3928C25.3195 34.1474 25.5617 33.902 25.8112 33.6492C26.6121 32.8402 27.4192 32.0374 28.227 31.2351C28.7862 30.6753 29.3453 30.1152 29.9042 29.555C31.0762 28.3823 32.2515 27.2129 33.4289 26.0456C34.9385 24.548 36.438 23.0408 37.9349 21.5307C39.0865 20.3717 40.2443 19.219 41.4038 18.0679C41.9594 17.5146 42.5129 16.9591 43.0641 16.4016C43.8349 15.6234 44.6138 14.8542 45.3953 14.0867C45.7354 13.7379 45.7354 13.7379 46.0824 13.3821Z" fill="white"/>
</svg>
